<svg width="25" height="25" viewBox="0 0 25 25" fill="none" xmlns="http://www.w3.org/2000/svg">
    <path
        d="M5.76777 13.3787C4.79146 12.4024 3.20854 12.4024 2.23223 13.3787C1.25592 14.355 1.25592 15.9379 2.23223 16.9143L5.76777 13.3787ZM10 21.1465L8.23223 22.9143C9.20854 23.8906 10.7915 23.8906 11.7678 22.9143L10 21.1465ZM22.9143 11.7678C23.8906 10.7915 23.8906 9.20854 22.9143 8.23223C21.9379 7.25592 20.355 7.25592 19.3787 8.23223L22.9143 11.7678ZM2.23223 16.9143L8.23223 22.9143L11.7678 19.3787L5.76777 13.3787L2.23223 16.9143ZM11.7678 22.9143L22.9143 11.7678L19.3787 8.23223L8.23223 19.3787L11.7678 22.9143Z"
        fill="#FFF5E6" />
</svg>
