<svg width="42" height="42" viewBox="0 0 42 42" fill="none" xmlns="http://www.w3.org/2000/svg">
<g filter="url(#filter0_d)">
<path d="M22.0607 8.93934C21.4749 8.35355 20.5251 8.35355 19.9393 8.93934C19.3536 9.52513 19.3536 10.4749 19.9393 11.0607L22.0607 8.93934ZM28 17L29.0607 18.0607C29.6464 17.4749 29.6464 16.5251 29.0607 15.9393L28 17ZM19.9393 22.9393C19.3536 23.5251 19.3536 24.4749 19.9393 25.0607C20.5251 25.6464 21.4749 25.6464 22.0607 25.0607L19.9393 22.9393ZM19.9393 11.0607L26.9393 18.0607L29.0607 15.9393L22.0607 8.93934L19.9393 11.0607ZM26.9393 15.9393L19.9393 22.9393L22.0607 25.0607L29.0607 18.0607L26.9393 15.9393Z" fill="#FFF5E6"/>
</g>
<defs>
<filter id="filter0_d" x="0.878906" y="0.878662" width="40.2426" height="40.2426" filterUnits="userSpaceOnUse" color-interpolation-filters="sRGB">
<feFlood flood-opacity="0" result="BackgroundImageFix"/>
<feColorMatrix in="SourceAlpha" type="matrix" values="0 0 0 0 0 0 0 0 0 0 0 0 0 0 0 0 0 0 127 0"/>
<feOffset dy="4"/>
<feGaussianBlur stdDeviation="5.5"/>
<feColorMatrix type="matrix" values="0 0 0 0 0 0 0 0 0 0 0 0 0 0 0 0 0 0 0.13 0"/>
<feBlend mode="normal" in2="BackgroundImageFix" result="effect1_dropShadow"/>
<feBlend mode="normal" in="SourceGraphic" in2="effect1_dropShadow" result="shape"/>
</filter>
</defs>
</svg>
