<svg width="500" height="500" viewBox="0 0 500 500" fill="none" xmlns="http://www.w3.org/2000/svg">
<path d="M398.14 417.52C396.86 412.44 400.21 407.37 403.96 403.71C407.71 400.05 412.18 396.78 414.15 391.93C417.34 384.07 413.15 373.84 418.57 367.3C421.74 363.45 427.41 362.19 430.23 358.07C431.71 355.91 432.23 353.25 432.79 350.7C435.844 337.621 442.354 325.603 451.64 315.9C452.197 327.571 449.603 339.177 444.13 349.5C441.94 353.62 439.25 357.64 438.5 362.25C437.29 369.73 441.43 377.47 439.5 384.82C437.35 393.22 427.86 398.82 427.37 407.45C426.95 414.77 433.29 421.23 432.77 428.54C432.55 431.66 431.09 434.54 429.47 437.21C423.75 446.59 415.4 453.02 402.8 452.74L387.36 453.19L398.14 417.52Z" fill="#F5F5F5"/>
<path d="M384.28 453.58C382.867 453.785 381.429 453.744 380.03 453.46C378.323 453.202 376.648 452.77 375.03 452.17C372.791 451.384 370.701 450.224 368.85 448.74C367.734 447.833 366.864 446.661 366.32 445.33C365.864 443.835 365.628 442.282 365.62 440.72C365.607 439.048 365.497 437.379 365.29 435.72C365.002 433.948 364.37 432.249 363.43 430.72C361.63 427.52 358.62 424.47 357.67 420.12C356.72 415.77 357.42 411.23 358.17 406.59C358.92 401.95 359.63 396.92 357.89 392.09C356.15 387.26 352.89 382.87 351.24 377.42C349.59 371.97 350.4 366.01 350.08 360.17C349.98 357.207 349.301 354.292 348.08 351.59C346.84 348.85 345.08 346.26 343.79 343.38C341.08 337.55 340.64 330.95 339.92 324.49C339.58 321.23 339.247 317.94 338.92 314.62C338.713 311.274 338.157 307.96 337.26 304.73C336.239 301.47 335.024 298.274 333.62 295.16C332.901 293.543 332.312 291.871 331.86 290.16C331.611 288.399 331.454 286.627 331.39 284.85C331.247 281.28 331.405 277.704 331.86 274.16C332.3 270.6 332.97 267.07 333.37 263.5C333.37 263.29 333.42 263.08 333.44 262.89L333.53 262.18L334.16 262.5C337.424 264.184 340.254 266.6 342.43 269.56C344.55 272.453 346.251 275.631 347.48 279C350.02 285.65 350.91 292.6 352.17 299.24C353.43 305.88 355 312.44 358.39 318C360.07 320.76 362.1 323.28 363.88 326C365.774 328.626 367.064 331.638 367.66 334.82C368.53 341.36 364.9 347.07 365.66 352.82C366.002 355.654 366.946 358.381 368.43 360.82C369.82 363.29 371.43 365.59 373 367.9C374.585 370.153 375.96 372.546 377.11 375.05C378.179 377.504 378.805 380.128 378.96 382.8C379.31 388 378.54 392.94 378.89 397.6C379.295 402.04 380.566 406.358 382.63 410.31C384.48 414.12 386.53 417.57 388.26 420.91C389.12 422.58 389.92 424.21 390.57 425.84C391.184 427.419 391.63 429.058 391.9 430.73C392.339 433.649 392.359 436.615 391.96 439.54C391.531 443.619 389.98 447.499 387.48 450.75C387.1 451.236 386.679 451.688 386.22 452.1C385.922 452.423 385.586 452.708 385.22 452.95C384.65 453.38 384.34 453.57 384.34 453.57C385.441 452.699 386.447 451.713 387.34 450.63C389.745 447.372 391.217 443.521 391.6 439.49C391.961 436.604 391.911 433.682 391.45 430.81C391.134 429.161 390.648 427.549 390 426C389.35 424.41 388.55 422.79 387.68 421.14C385.94 417.82 383.86 414.39 381.97 410.56C379.846 406.541 378.531 402.145 378.1 397.62C377.73 392.86 378.47 387.91 378.1 382.82C377.939 380.236 377.323 377.7 376.28 375.33C375.141 372.879 373.782 370.536 372.22 368.33C370.67 366.04 369.02 363.73 367.59 361.2C366.039 358.655 365.05 355.808 364.69 352.85C363.98 346.68 367.59 340.93 366.69 334.85C366.114 331.804 364.867 328.924 363.04 326.42C361.29 323.77 359.25 321.25 357.52 318.42C354.05 312.73 352.38 306.07 351.14 299.42C349.9 292.77 348.97 285.86 346.48 279.35C345.286 276.068 343.629 272.973 341.56 270.16C339.478 267.322 336.768 265.004 333.64 263.39L334.35 263C334.35 263.19 334.35 263.41 334.28 263.62C333.87 267.23 333.2 270.76 332.77 274.28C332.31 277.767 332.153 281.286 332.3 284.8C332.358 286.526 332.505 288.249 332.74 289.96C333.18 291.61 333.752 293.222 334.45 294.78C335.864 297.931 337.09 301.163 338.12 304.46C339.02 307.727 339.583 311.078 339.8 314.46C340.15 317.78 340.49 321.08 340.8 324.34C341.5 330.83 341.94 337.34 344.55 342.95C345.84 345.75 347.55 348.34 348.82 351.17C350.057 353.979 350.737 357.002 350.82 360.07C351.12 366.07 350.32 371.85 351.9 377.14C353.48 382.43 356.81 386.8 358.48 391.79C360.15 396.78 359.48 402.04 358.73 406.66C357.98 411.28 357.18 415.82 358.16 419.93C359.14 424.04 361.94 427.1 363.78 430.4C364.738 431.985 365.38 433.741 365.67 435.57C365.862 437.25 365.958 438.939 365.96 440.63C365.954 442.15 366.169 443.662 366.6 445.12C367.108 446.386 367.922 447.506 368.97 448.38C370.77 449.847 372.797 451.012 374.97 451.83C376.57 452.442 378.224 452.9 379.91 453.2C380.947 453.384 381.997 453.491 383.05 453.52C383.91 453.56 384.28 453.58 384.28 453.58Z" fill="#E0E0E0"/>
<path d="M336.53 271.43C336.53 271.43 336.6 271.58 336.68 271.9C336.76 272.22 336.87 272.72 337.01 273.29C337.31 274.5 337.66 276.29 338.23 278.64C338.8 280.99 340.23 283.52 341.39 286.72C342.55 289.92 343.86 293.57 344.99 297.72C346.12 301.87 347.17 306.42 348.23 311.33C349.29 316.24 350.42 321.47 353.09 326.43C354.34 328.95 355.75 331.49 356.86 334.28C357.959 337.132 358.692 340.113 359.04 343.15C359.778 349.433 360.853 355.672 362.26 361.84L370.78 397.57L377.93 426.7L382.67 446.37C383.2 448.63 383.61 450.42 383.91 451.72L384.21 453.12C384.25 453.281 384.273 453.445 384.28 453.61C384.198 453.467 384.141 453.312 384.11 453.15C384.01 452.78 383.88 452.33 383.72 451.77C383.373 450.477 382.9 448.707 382.3 446.46C381.09 441.75 379.37 435.08 377.3 426.87C375.23 418.66 372.71 408.72 369.95 397.79C367.19 386.86 364.39 374.73 361.34 362.06C359.93 355.862 358.856 349.593 358.12 343.28C357.783 340.309 357.07 337.392 356 334.6C354.93 331.88 353.54 329.35 352.29 326.81C349.6 321.76 348.5 316.35 347.45 311.47C346.4 306.59 345.45 301.99 344.34 297.88C343.23 293.77 342.06 290.09 340.89 286.88C339.72 283.67 338.43 281.07 337.89 278.7C337.35 276.33 337.09 274.53 336.89 273.29C336.8 272.71 336.72 272.29 336.66 271.88C336.596 271.737 336.552 271.585 336.53 271.43V271.43Z" fill="#E0E0E0"/>
<path d="M381.55 453.61C371.55 447.56 368.71 429.35 372.98 418.42C377.25 407.49 384.67 397.53 385.87 385.86C386.79 376.86 383.87 367.67 386.05 358.86C388.93 347.04 400.55 337.94 400.48 325.77C400.48 318.94 396.6 312.49 396.94 305.67C397.37 297.31 403.83 290.67 407.85 283.36C414 272.11 414.48 258.77 416.63 246.14C418.78 233.51 423.68 220 434.93 213.87C436.53 224.61 439.31 231.99 438.34 246.53C437.99 251.75 431.87 261.72 430.97 273.17C430.44 280.01 430.06 286.86 429.6 293.71C429.16 300.37 428.69 307.16 426.26 313.38C424.41 318.15 421.44 322.47 420.05 327.38C417.44 336.64 420.75 346.72 418.63 356.11C416.83 364.06 411.28 370.89 410.11 378.96C408.46 390.3 415.74 402.14 411.92 412.96C410.02 418.33 405.58 422.61 404.29 428.16C403.29 432.45 404.29 437.02 403.42 441.34C401.96 448.34 388.65 453.63 381.55 453.16" fill="#E0E0E0"/>
<path d="M432.09 224.51C432.114 224.713 432.114 224.917 432.09 225.12C432.03 225.57 431.95 226.12 431.86 226.88C431.62 228.43 431.34 230.71 430.8 233.65C430.26 236.59 428.68 239.93 427.44 243.94C426.2 247.95 424.82 252.56 423.66 257.73C422.5 262.9 421.48 268.62 420.44 274.73C419.4 280.84 418.2 287.64 415.11 294C413.68 297.22 412.11 300.43 410.86 303.87C409.678 307.391 408.942 311.046 408.67 314.75C408.065 322.623 407.033 330.458 405.58 338.22C402.4 354.12 399.37 369.22 396.58 383.04L388.87 419.54C386.65 429.87 384.87 438.26 383.58 444.13C382.95 446.98 382.45 449.21 382.1 450.8C381.93 451.52 381.79 452.09 381.69 452.53C381.653 452.733 381.593 452.931 381.51 453.12C381.518 452.915 381.545 452.711 381.59 452.51C381.67 452.07 381.77 451.51 381.9 450.76C382.21 449.16 382.65 446.91 383.2 444.05C384.39 438.16 386.09 429.76 388.2 419.4L395.7 382.85L404.58 338.05C406.028 330.311 407.063 322.5 407.68 314.65C407.992 310.881 408.771 307.166 410 303.59C411.24 300.09 412.87 296.86 414.31 293.67C417.38 287.36 418.48 280.77 419.61 274.67C420.74 268.57 421.73 262.78 422.96 257.61C424.033 252.943 425.345 248.333 426.89 243.8C428.19 239.8 429.78 236.48 430.41 233.59C431.04 230.7 431.34 228.41 431.64 226.88C431.78 226.15 431.89 225.58 431.97 225.13C431.984 224.919 432.024 224.711 432.09 224.51V224.51Z" fill="#EBEBEB"/>
<path d="M157.64 90.21H58.21C58.21 90.21 67 74.21 92.59 76.53C117.04 78.76 118.28 68.66 130.71 67.42C143.14 66.18 153.5 75.71 157.64 90.21Z" fill="#F5F5F5"/>
<path d="M148.47 233.86H83.47C83.47 233.86 89.22 223.4 105.96 224.92C121.96 226.37 122.77 219.77 130.9 218.92C139.03 218.07 145.76 224.38 148.47 233.86Z" fill="#EBEBEB"/>
<path d="M351 97.69H285.95C285.95 97.69 291.71 87.23 308.45 88.75C324.45 90.21 325.25 83.6 333.38 82.75C341.51 81.9 348.29 88.21 351 97.69Z" fill="#F5F5F5"/>
<path d="M449.71 143.75H325.1C325.1 143.75 336.1 123.75 368.19 126.62C398.83 129.41 400.39 116.75 415.96 115.19C431.53 113.63 444.52 125.58 449.71 143.75Z" fill="#EBEBEB"/>
<path d="M34.77 452.21C34.77 452.35 131.14 452.47 249.99 452.47C368.84 452.47 465.23 452.35 465.23 452.21C465.23 452.07 368.88 452 250 452C131.12 452 34.77 452.07 34.77 452.21Z" fill="#263238"/>
<path d="M80.4 433.37C81.08 430.68 79.3 427.99 77.31 426.05C75.32 424.11 72.95 422.38 71.91 419.8C70.22 415.64 72.43 410.22 69.57 406.75C67.89 404.75 64.88 404.04 63.39 401.85C62.6899 400.665 62.2183 399.359 62 398C60.3777 391.066 56.9243 384.694 52 379.55C51.7081 385.738 53.0899 391.891 56 397.36C57.16 399.55 58.59 401.67 59 404.12C59.64 408.12 57.45 412.19 58.45 416.12C59.59 420.58 64.62 423.53 64.88 428.12C65.1 432 61.74 435.43 62.01 439.3C62.221 440.949 62.8246 442.523 63.77 443.89C66.77 448.89 71.22 452.28 77.9 452.13L86.09 452.37L80.4 433.37Z" fill="#FF725E"/>
<path d="M87.75 452.48C88.4977 452.592 89.2593 452.572 90 452.42C90.9036 452.282 91.7913 452.054 92.6499 451.74C93.836 451.318 94.9442 450.703 95.9299 449.92C96.52 449.437 96.9805 448.815 97.2699 448.11C97.5124 447.316 97.6371 446.49 97.64 445.66C97.6518 444.777 97.7119 443.896 97.82 443.02C97.9771 442.083 98.3169 441.186 98.82 440.38C99.82 438.68 101.37 437.06 101.87 434.76C102.37 432.46 102.01 430.05 101.61 427.59C101.21 425.13 100.83 422.46 101.76 419.9C102.69 417.34 104.4 415.01 105.28 412.12C106.16 409.23 105.73 406.07 105.9 402.98C105.938 401.413 106.278 399.869 106.9 398.43C107.55 396.98 108.46 395.61 109.17 394.08C110.61 390.99 110.84 387.49 111.22 384.08C111.4 382.36 111.59 380.61 111.78 378.85C111.888 377.077 112.183 375.321 112.66 373.61C113.197 371.882 113.842 370.188 114.59 368.54C114.974 367.685 115.285 366.798 115.52 365.89C115.657 364.956 115.74 364.014 115.77 363.07C115.846 361.18 115.763 359.286 115.52 357.41C115.29 355.52 114.94 353.65 114.72 351.76C114.72 351.65 114.72 351.53 114.72 351.43V351.06L114.38 351.22C112.652 352.118 111.153 353.401 110 354.97C108.875 356.502 107.973 358.185 107.32 359.97C105.97 363.49 105.5 367.18 104.83 370.7C104.336 374.178 103.218 377.539 101.53 380.62C100.64 382.08 99.5299 383.42 98.6199 384.84C97.6151 386.233 96.932 387.831 96.6199 389.52C96.1499 392.98 98.08 396.01 97.7 399.08C97.5176 400.588 97.0166 402.04 96.23 403.34C95.49 404.65 94.6299 405.87 93.7999 407.09C92.9603 408.283 92.2339 409.552 91.63 410.88C91.0559 412.18 90.7173 413.572 90.63 414.99C90.44 417.75 90.85 420.36 90.63 422.84C90.41 425.193 89.7305 427.479 88.63 429.57C87.63 431.57 86.56 433.42 85.63 435.19C85.17 436.07 84.7499 436.94 84.3999 437.8C84.0765 438.64 83.8419 439.511 83.7 440.4C83.4757 441.949 83.4757 443.521 83.7 445.07C83.931 447.231 84.7546 449.287 86.0799 451.01C86.2831 451.265 86.5073 451.502 86.75 451.72C86.9111 451.894 87.0924 452.049 87.29 452.18C87.59 452.4 87.76 452.5 87.76 452.5C87.1681 452.044 86.6312 451.52 86.16 450.94C84.8888 449.214 84.111 447.174 83.91 445.04C83.7185 443.511 83.7454 441.962 83.9899 440.44C84.1285 439.572 84.3667 438.723 84.7 437.91C85.0647 437.029 85.4752 436.168 85.9299 435.33C86.8499 433.57 87.9299 431.75 88.9299 429.72C90.0547 427.589 90.7511 425.259 90.98 422.86C91.18 420.34 90.79 417.71 90.98 415.02C91.0756 413.638 91.4141 412.284 91.98 411.02C92.5822 409.715 93.3053 408.47 94.14 407.3C94.96 406.09 95.83 404.87 96.59 403.53C97.413 402.18 97.938 400.67 98.13 399.1C98.5 395.83 96.59 392.78 97.07 389.56C97.3753 387.949 98.0345 386.426 99 385.1C99.93 383.7 101 382.36 101.93 380.86C103.655 377.731 104.8 374.316 105.31 370.78C105.99 367.24 106.46 363.59 107.78 360.14C108.413 358.397 109.292 356.754 110.39 355.26C111.496 353.759 112.933 352.534 114.59 351.68L114.21 351.47C114.21 351.57 114.21 351.69 114.21 351.8C114.43 353.71 114.78 355.59 115.01 357.45C115.252 359.3 115.336 361.166 115.26 363.03C115.227 363.944 115.147 364.855 115.02 365.76C114.789 366.636 114.488 367.492 114.12 368.32C113.37 369.99 112.719 371.703 112.17 373.45C111.69 375.188 111.392 376.971 111.28 378.77C111.1 380.54 110.91 382.28 110.73 384.01C110.36 387.45 110.12 390.89 108.73 393.87C108.05 395.36 107.14 396.74 106.47 398.24C105.808 399.725 105.444 401.325 105.4 402.95C105.24 406.11 105.66 409.2 104.83 412C104 414.8 102.22 417.12 101.33 419.77C100.44 422.42 100.8 425.2 101.2 427.65C101.6 430.1 102.02 432.5 101.51 434.65C101 436.8 99.51 438.45 98.51 440.2C98.0024 441.04 97.6628 441.971 97.51 442.94C97.4045 443.83 97.3511 444.724 97.35 445.62C97.3518 446.426 97.2339 447.228 97 448C96.731 448.673 96.2978 449.268 95.7399 449.73C94.7847 450.512 93.7068 451.13 92.5499 451.56C91.7013 451.885 90.8241 452.129 89.9299 452.29C89.3812 452.385 88.8265 452.442 88.2699 452.46C87.9399 452.47 87.75 452.48 87.75 452.48Z" fill="#263238"/>
<path d="M113.06 355.93C113.019 356.008 112.992 356.093 112.98 356.18C112.93 356.37 112.87 356.61 112.8 356.91C112.64 357.56 112.46 358.53 112.16 359.75C111.86 360.97 111.11 362.34 110.48 364.03C109.745 365.937 109.108 367.879 108.57 369.85C107.96 372.04 107.42 374.46 106.85 377.06C106.369 379.833 105.504 382.526 104.28 385.06C103.62 386.39 102.87 387.74 102.28 389.22C101.697 390.731 101.31 392.311 101.13 393.92C100.734 397.251 100.163 400.559 99.42 403.83C97.82 410.55 96.29 416.94 94.9 422.77C93.51 428.6 92.19 433.77 91.11 438.21C90.03 442.65 89.2 446.13 88.6 448.63L87.94 451.47C87.88 451.77 87.82 452.02 87.78 452.22C87.7667 452.303 87.7667 452.387 87.78 452.47L87.86 452.23C87.92 452.03 87.99 451.79 88.07 451.5C88.26 450.81 88.51 449.87 88.83 448.68L91.5 438.3C92.61 433.9 93.93 428.68 95.4 422.88L99.93 404C100.677 400.716 101.248 397.395 101.64 394.05C101.811 392.48 102.18 390.937 102.74 389.46C103.32 388.02 104.05 386.68 104.74 385.33C105.977 382.755 106.842 380.018 107.31 377.2C107.86 374.6 108.37 372.2 108.96 370C109.55 367.8 110.17 365.87 110.79 364.19C111.41 362.51 112.09 361.11 112.38 359.85C112.67 358.59 112.81 357.64 112.94 356.98L113.06 356.24C113.07 356.137 113.07 356.033 113.06 355.93V355.93Z" fill="#263238"/>
<path d="M89.19 452.5C94.52 449.29 96 439.64 93.73 433.85C91.46 428.06 87.54 422.77 86.9 416.59C86.41 411.83 87.9 406.94 86.81 402.3C85.28 396.03 79.12 391.2 79.16 384.75C79.16 381.13 81.22 377.75 81.03 374.1C80.8 369.67 77.38 366.17 75.25 362.27C71.99 356.27 71.74 349.27 70.59 342.54C69.44 335.81 66.86 328.68 60.9 325.41C60.05 331.11 58.57 335.02 59.09 342.73C59.27 345.5 62.52 350.73 62.99 356.85C63.28 360.48 63.48 364.11 63.72 367.74C63.96 371.37 64.2 374.87 65.49 378.16C66.49 380.69 68.05 382.98 68.78 385.6C70.17 390.51 68.42 395.85 69.54 400.83C70.49 405.04 73.43 408.66 74.05 412.94C74.93 418.94 71.05 425.23 73.05 430.94C74.05 433.79 76.42 436.06 77.1 439C77.63 441.27 77.1 443.69 77.56 446C78.33 449.69 85.39 452.52 89.15 452.27" fill="#455A64"/>
<path d="M62.4 331.06C62.3867 331.166 62.3867 331.274 62.4 331.38L62.52 332.31C62.65 333.14 62.79 334.31 63.08 335.9C63.37 337.49 64.21 339.23 64.87 341.36C65.53 343.49 66.25 345.93 66.87 348.67C67.49 351.41 68.02 354.44 68.57 357.67C69.0246 361.187 69.967 364.623 71.37 367.88C72.13 369.59 72.98 371.29 73.62 373.11C74.2479 374.977 74.641 376.916 74.79 378.88C75.1049 383.057 75.6491 387.213 76.42 391.33C78.11 399.75 79.71 407.78 81.17 415.08C82.63 422.38 84.1 428.91 85.26 434.43C86.42 439.95 87.39 444.35 88.06 447.43C88.4 448.94 88.66 450.13 88.85 450.97C88.94 451.35 89.01 451.66 89.07 451.89C89.0871 451.997 89.1174 452.101 89.16 452.2C89.1755 452.094 89.1755 451.986 89.16 451.88C89.16 451.64 89.06 451.34 88.99 450.95C88.83 450.1 88.6 448.95 88.3 447.39C87.67 444.27 86.77 439.82 85.67 434.32C84.57 428.82 83.18 422.24 81.67 414.95C80.16 407.66 78.67 399.63 76.96 391.2C76.1938 387.099 75.6464 382.96 75.32 378.8C75.1687 376.797 74.7655 374.822 74.12 372.92C73.46 371.06 72.59 369.35 71.83 367.66C70.4305 364.463 69.4783 361.088 69 357.63C68.43 354.37 67.88 351.33 67.23 348.58C66.6578 346.11 65.9602 343.67 65.14 341.27C64.45 339.13 63.61 337.38 63.28 335.86C62.95 334.34 62.79 333.11 62.63 332.3L62.45 331.37C62.4482 331.265 62.4313 331.161 62.4 331.06Z" fill="#263238"/>
<path d="M111.91 428.6C107.13 437.89 113.82 450.15 122.15 452.18C130.48 454.21 142.15 446.4 142.09 435.95C142.09 421.85 136.3 415.06 131.48 413.89C125.28 412.38 116.69 419.29 111.91 428.6Z" fill="#FF725E"/>
<path opacity="0.5" d="M111.91 428.6C107.13 437.89 113.82 450.15 122.15 452.18C130.48 454.21 142.15 446.4 142.09 435.95C142.09 421.85 136.3 415.06 131.48 413.89C125.28 412.38 116.69 419.29 111.91 428.6Z" fill="black"/>
<path d="M89.65 428.43C86.83 440.18 97.7 452.14 107.65 452.14C117.6 452.14 128.48 440.14 125.65 428.43C121.77 412.58 113.42 406.54 107.65 406.54C100.24 406.54 92.47 416.66 89.65 428.43Z" fill="#FF725E"/>
<path d="M89.39 429.32C89.8052 429.592 90.2476 429.82 90.7099 430C91.9429 430.571 93.2084 431.068 94.4999 431.49C96.4068 432.127 98.3546 432.635 100.33 433.01C105.189 433.936 110.166 434.078 115.07 433.43C117.065 433.169 119.04 432.772 120.98 432.24C122.292 431.898 123.581 431.474 124.84 430.97C125.316 430.82 125.772 430.616 126.2 430.36C126.2 430.26 124.2 431.03 120.88 431.83C118.941 432.275 116.977 432.609 115 432.83C112.577 433.103 110.138 433.213 107.7 433.16C105.263 433.071 102.835 432.824 100.43 432.42C98.4711 432.075 96.5344 431.614 94.6299 431.04C91.3699 430.09 89.44 429.21 89.39 429.32Z" fill="#FAFAFA"/>
<path d="M92.3299 421.73C92.5795 422.109 92.8866 422.446 93.2399 422.73C94.1525 423.553 95.1596 424.264 96.2399 424.85C99.8331 426.747 103.859 427.674 107.92 427.54C111.943 427.384 115.925 426.668 119.75 425.41C121.22 424.96 122.39 424.55 123.2 424.25C123.629 424.122 124.042 423.944 124.43 423.72C123.983 423.768 123.543 423.869 123.12 424.02L119.63 425.02C115.817 426.142 111.881 426.79 107.91 426.95C103.943 427.076 100.006 426.231 96.4399 424.49C94.9948 423.687 93.6199 422.764 92.3299 421.73V421.73Z" fill="#263238"/>
<path d="M94.8501 415.78C95.1217 416.007 95.4207 416.198 95.7401 416.35C96.5771 416.814 97.446 417.218 98.3401 417.56C104.3 419.881 110.877 420.086 116.97 418.14C117.884 417.853 118.776 417.502 119.64 417.09C119.97 416.962 120.28 416.787 120.56 416.57C120.51 416.47 119.15 417.09 116.85 417.73C110.81 419.404 104.404 419.206 98.4801 417.16C96.2201 416.38 94.9001 415.68 94.8501 415.78Z" fill="#FAFAFA"/>
<path d="M99.65 411C100.411 411.385 101.228 411.648 102.07 411.78C104.073 412.216 106.12 412.421 108.17 412.39C110.221 412.368 112.262 412.103 114.25 411.6C115.086 411.449 115.893 411.165 116.64 410.76C116.64 410.57 112.89 411.76 108.16 411.76C103.43 411.76 99.7 410.8 99.65 411Z" fill="#263238"/>
<path d="M91.57 439C91.946 439.222 92.3494 439.393 92.77 439.51C93.8834 439.924 95.0184 440.278 96.17 440.57C103.795 442.562 111.79 442.678 119.47 440.91C120.631 440.639 121.776 440.305 122.9 439.91C123.325 439.8 123.734 439.639 124.12 439.43C124.12 439.33 122.31 439.87 119.38 440.43C111.739 441.944 103.864 441.829 96.27 440.09C93.36 439.44 91.6 438.85 91.57 439Z" fill="#263238"/>
<path d="M96.76 447.24C97.0129 447.415 97.2935 447.547 97.5899 447.63C98.3707 447.926 99.1688 448.173 99.98 448.37C105.345 449.716 110.975 449.581 116.27 447.98C117.07 447.747 117.855 447.463 118.62 447.13C119.16 446.89 119.45 446.74 119.43 446.7C119.41 446.66 118.18 447.06 116.16 447.57C110.896 448.922 105.392 449.052 100.07 447.95C98 447.54 96.8 447.15 96.76 447.24Z" fill="#FAFAFA"/>
<path d="M152.27 434.44C148.67 441.44 153.72 450.7 160 452.24C166.28 453.78 175 447.87 175 440C175 429.36 170.64 424.24 167 423.36C162.36 422.21 155.88 427.42 152.27 434.44Z" fill="#FF725E"/>
<path d="M151.06 441.58C151.192 441.733 151.343 441.867 151.51 441.98C151.98 442.314 152.491 442.586 153.03 442.79C154.741 443.469 156.647 443.469 158.358 442.79C160.07 442.112 161.458 440.807 162.24 439.14C163.019 437.594 163.218 435.82 162.8 434.14C162.687 433.645 162.441 433.191 162.089 432.826C161.736 432.461 161.291 432.2 160.8 432.07C160.532 432.011 160.255 432.011 159.988 432.07C159.72 432.128 159.468 432.244 159.25 432.41C158.822 432.746 158.522 433.219 158.4 433.75C158.312 434.276 158.336 434.815 158.468 435.331C158.601 435.848 158.84 436.331 159.17 436.75C159.776 437.597 160.579 438.283 161.51 438.75C162.422 439.243 163.443 439.501 164.48 439.501C165.517 439.501 166.538 439.243 167.45 438.75C168.3 438.298 169.038 437.66 169.609 436.885C170.18 436.11 170.57 435.216 170.75 434.27C170.937 433.355 170.765 432.402 170.27 431.61C170.017 431.236 169.668 430.937 169.26 430.744C168.852 430.551 168.4 430.47 167.95 430.51C167.524 430.57 167.128 430.766 166.821 431.068C166.515 431.371 166.315 431.764 166.25 432.19C166.175 432.559 166.177 432.939 166.254 433.307C166.331 433.675 166.483 434.023 166.7 434.33C167.429 435.334 168.493 436.043 169.7 436.33C170.601 436.544 171.539 436.544 172.44 436.33C173.009 436.213 173.553 436 174.05 435.7C174.227 435.605 174.386 435.48 174.52 435.33C173.855 435.69 173.141 435.949 172.4 436.1C171.53 436.246 170.639 436.198 169.79 435.96C168.673 435.664 167.7 434.975 167.05 434.02C166.872 433.758 166.749 433.462 166.689 433.151C166.629 432.84 166.633 432.52 166.7 432.21C166.768 431.9 166.929 431.618 167.161 431.402C167.393 431.186 167.686 431.046 168 431C168.356 430.974 168.713 431.044 169.033 431.202C169.353 431.36 169.625 431.601 169.82 431.9C170.222 432.584 170.354 433.394 170.19 434.17C170.011 435.015 169.65 435.811 169.132 436.502C168.614 437.193 167.951 437.762 167.19 438.17C166.363 438.613 165.439 438.845 164.5 438.845C163.561 438.845 162.637 438.613 161.81 438.17C160.961 437.739 160.233 437.103 159.69 436.32C159.412 435.976 159.207 435.578 159.088 435.152C158.969 434.725 158.939 434.279 159 433.84C159.028 433.646 159.094 433.459 159.195 433.29C159.296 433.122 159.43 432.975 159.588 432.859C159.746 432.743 159.926 432.659 160.117 432.613C160.308 432.567 160.506 432.559 160.7 432.59C161.083 432.704 161.428 432.917 161.701 433.209C161.974 433.501 162.163 433.86 162.25 434.25C162.643 435.805 162.473 437.449 161.77 438.89C161.177 440.179 160.212 441.262 159 442C158.107 442.501 157.119 442.809 156.099 442.906C155.08 443.002 154.051 442.884 153.08 442.56C152.377 442.298 151.701 441.97 151.06 441.58V441.58Z" fill="#FAFAFA"/>
<path d="M157.84 451.64C158.471 450.285 159.377 449.076 160.5 448.09C161.734 447.063 163.244 446.423 164.84 446.25C165.275 446.18 165.72 446.206 166.143 446.327C166.566 446.448 166.958 446.661 167.29 446.95C167.454 447.09 167.584 447.266 167.669 447.464C167.755 447.662 167.794 447.877 167.783 448.092C167.772 448.307 167.713 448.518 167.608 448.706C167.503 448.895 167.357 449.057 167.18 449.18C166.984 449.282 166.769 449.341 166.548 449.355C166.328 449.369 166.107 449.336 165.9 449.26C165.496 449.086 165.174 448.764 165 448.36C164.829 447.955 164.767 447.512 164.82 447.075C164.872 446.639 165.038 446.223 165.3 445.87C165.758 445.241 166.361 444.732 167.057 444.384C167.753 444.036 168.522 443.86 169.3 443.87C170.38 443.881 171.43 444.23 172.3 444.87C172.91 445.34 173.17 445.69 173.21 445.66C173.25 445.63 173.04 445.23 172.45 444.66C171.585 443.89 170.486 443.436 169.33 443.37C168.461 443.322 167.595 443.491 166.807 443.861C166.02 444.231 165.337 444.791 164.82 445.49C164.507 445.917 164.308 446.416 164.243 446.942C164.178 447.467 164.25 448 164.45 448.49C164.563 448.764 164.728 449.013 164.938 449.222C165.147 449.432 165.396 449.597 165.67 449.71C165.959 449.821 166.268 449.869 166.577 449.85C166.886 449.831 167.187 449.746 167.46 449.6C167.743 449.449 167.979 449.222 168.142 448.945C168.304 448.668 168.386 448.351 168.38 448.03C168.365 447.436 168.13 446.87 167.72 446.44C167.32 446.075 166.841 445.807 166.321 445.658C165.8 445.509 165.253 445.482 164.72 445.58C163.025 445.792 161.435 446.514 160.16 447.65C159.313 448.402 158.632 449.321 158.16 450.35C157.961 450.752 157.852 451.192 157.84 451.64V451.64Z" fill="#FAFAFA"/>
<path d="M160.8 424.86C160.75 424.91 161.11 425.39 161.9 425.86C162.952 426.518 164.171 426.861 165.412 426.847C166.653 426.833 167.863 426.462 168.9 425.78C169.68 425.24 170.02 424.78 169.97 424.71C169.92 424.64 169.47 425 168.68 425.41C167.664 425.948 166.534 426.236 165.385 426.25C164.235 426.264 163.099 426.003 162.07 425.49C161.31 425.14 160.87 424.79 160.8 424.86Z" fill="#FAFAFA"/>
<g opacity="0.2">
<path opacity="0.2" d="M163.18 452.1C164.158 451.809 165.071 451.334 165.87 450.7C166.264 450.375 166.558 449.945 166.719 449.461C166.879 448.976 166.901 448.456 166.78 447.96C166.594 447.541 166.318 447.167 165.973 446.865C165.628 446.562 165.22 446.339 164.78 446.21C163.907 445.95 163.049 445.643 162.21 445.29C161.446 444.817 160.782 444.199 160.257 443.47C159.732 442.74 159.356 441.915 159.15 441.04C158.63 439.32 158.46 437.51 157.95 435.79C157.864 435.304 157.663 434.845 157.364 434.451C157.065 434.058 156.676 433.742 156.23 433.53C154.95 433.14 153.73 434.33 153.09 435.53C152.134 437.358 151.686 439.409 151.794 441.468C151.901 443.528 152.559 445.522 153.7 447.24C156.03 450.63 159.07 452.65 163.15 452.12" fill="black"/>
</g>
<path d="M357.66 435L345.72 430.89L353.27 408.48L370.8 414.31L370.42 415.73C368.68 422.03 361.12 447.64 358.48 451.35C355.53 455.51 357.66 435 357.66 435Z" fill="#FF725E"/>
<g opacity="0.4">
<path opacity="0.4" d="M367.89 422.39C366.108 421.423 364.747 419.831 364.07 417.92C363.392 416.04 363.442 413.975 364.21 412.13L370.47 414.24L367.89 422.39Z" fill="black"/>
</g>
<path opacity="0.4" d="M356.95 445.14C356.95 445.14 356.62 452.47 358 452C359.38 451.53 368 426 370.8 414.33L370.29 414.19L360.5 444.13C360.5 444.13 357.44 443.86 356.95 445.14Z" fill="black"/>
<path d="M370.39 413.84C370.374 413.976 370.344 414.11 370.3 414.24L370 415.36L368.8 419.5C367.8 422.98 366.28 427.77 364.51 433.03C362.74 438.29 361.05 443.03 359.77 446.41C359.17 448 358.65 449.34 358.23 450.41L357.8 451.49L357.63 451.87C357.654 451.733 357.691 451.599 357.74 451.47C357.86 451.14 357.99 450.78 358.13 450.37C358.52 449.27 359.01 447.92 359.58 446.32C360.81 442.9 362.48 438.17 364.24 432.92C366 427.67 367.53 422.92 368.61 419.42C369.11 417.8 369.54 416.42 369.89 415.31L370.25 414.2C370.283 414.075 370.33 413.954 370.39 413.84V413.84Z" fill="#263238"/>
<path d="M360.85 444.24C360.115 444.198 359.377 444.235 358.65 444.35C357.953 444.564 357.282 444.856 356.65 445.22C357.171 444.644 357.854 444.24 358.609 444.062C359.365 443.883 360.157 443.938 360.88 444.22L360.85 444.24Z" fill="#263238"/>
<path d="M359.72 436.5C359.72 436.58 359.25 436.76 358.62 436.92C358.249 437.052 357.852 437.1 357.46 437.06C357.46 436.98 357.93 436.79 358.55 436.64C359.17 436.49 359.7 436.42 359.72 436.5Z" fill="#263238"/>
<path d="M359.37 434.36C359.37 434.43 359.05 434.71 358.58 434.98C358.11 435.25 357.68 435.41 357.64 435.34C357.6 435.27 357.96 435 358.44 434.73C358.92 434.46 359.33 434.29 359.37 434.36Z" fill="#263238"/>
<path d="M357.64 432.5C357.657 432.92 357.575 433.338 357.4 433.72C357.314 434.131 357.136 434.518 356.88 434.85C356.863 434.433 356.945 434.019 357.12 433.64C357.33 433 357.56 432.48 357.64 432.5Z" fill="#263238"/>
<path d="M356.28 431.61C356.409 432.081 356.388 432.581 356.22 433.04C356.141 433.523 355.922 433.971 355.59 434.33C355.662 433.866 355.779 433.411 355.94 432.97C356.011 432.507 356.125 432.052 356.28 431.61V431.61Z" fill="#263238"/>
<path d="M357.51 436.6C357.421 437.092 357.249 437.566 357 438C356.765 438.5 356.48 438.976 356.15 439.42C355.962 439.699 355.74 439.955 355.49 440.18C355.336 440.316 355.135 440.388 354.93 440.38C354.815 440.367 354.706 440.322 354.615 440.249C354.525 440.177 354.457 440.08 354.42 439.97C354.338 439.33 354.48 438.681 354.823 438.134C355.166 437.587 355.688 437.175 356.3 436.97C356.657 436.85 357.034 436.803 357.41 436.83C357.68 436.83 357.82 436.9 357.82 436.92C357.327 436.921 356.837 437.002 356.37 437.16C355.874 437.367 355.45 437.714 355.15 438.16C354.962 438.407 354.825 438.689 354.746 438.989C354.667 439.289 354.648 439.602 354.69 439.91C354.78 440.2 355.08 440.2 355.32 440C355.547 439.786 355.755 439.552 355.94 439.3C356.267 438.873 356.562 438.422 356.82 437.95C357.28 437.14 357.46 436.59 357.51 436.6Z" fill="#263238"/>
<path d="M357.45 437C357.107 437.068 356.751 437.008 356.45 436.83C356.086 436.66 355.77 436.402 355.53 436.08C355.354 435.89 355.23 435.657 355.173 435.404C355.115 435.151 355.124 434.888 355.2 434.64C355.238 434.572 355.29 434.512 355.352 434.464C355.413 434.417 355.484 434.381 355.559 434.361C355.634 434.34 355.713 434.335 355.79 434.345C355.868 434.355 355.942 434.381 356.01 434.42C356.229 434.529 356.421 434.686 356.57 434.88C356.83 435.183 357.048 435.52 357.22 435.88C357.394 436.186 357.497 436.528 357.52 436.88C357.52 436.88 357.36 436.51 357.04 435.96C356.853 435.637 356.631 435.336 356.38 435.06C356.14 434.76 355.64 434.44 355.45 434.78C355.26 435.12 355.53 435.62 355.74 435.94C355.952 436.235 356.225 436.48 356.54 436.66C356.832 436.801 357.137 436.915 357.45 437V437Z" fill="#263238"/>
<path d="M364.1 412.23C364.15 412.23 363.83 412.85 363.61 413.91C363.308 415.278 363.402 416.705 363.88 418.022C364.358 419.339 365.201 420.493 366.31 421.35C367.16 422.02 367.79 422.27 367.77 422.35C367.612 422.322 367.46 422.268 367.32 422.19C366.921 422.015 366.542 421.797 366.19 421.54C365.006 420.697 364.106 419.514 363.609 418.148C363.113 416.781 363.043 415.297 363.41 413.89C363.519 413.471 363.666 413.062 363.85 412.67C363.907 412.51 363.992 412.361 364.1 412.23V412.23Z" fill="#263238"/>
<path d="M354 411.42C355.583 411.774 357.142 412.225 358.67 412.77C360.232 413.219 361.765 413.763 363.26 414.4C361.678 414.039 360.118 413.585 358.59 413.04C357.031 412.587 355.498 412.046 354 411.42V411.42Z" fill="#263238"/>
<path d="M364.75 424.48C364.634 425.635 364.372 426.771 363.97 427.86C363.658 428.978 363.201 430.051 362.61 431.05C362.53 431.05 363.12 429.58 363.7 427.77C364.28 425.96 364.67 424.46 364.75 424.48Z" fill="#263238"/>
<path d="M366.22 420.08C366.3 420.08 366.49 420.31 366.78 420.57C367.07 420.83 367.33 421.01 367.3 421.09C367.27 421.17 366.91 421.09 366.58 420.78C366.25 420.47 366.15 420.11 366.22 420.08Z" fill="#263238"/>
<path d="M364.72 417.73C364.79 417.73 364.97 417.92 365.13 418.23C365.29 418.54 365.36 418.82 365.29 418.86C365.22 418.9 365.03 418.67 364.87 418.36C364.71 418.05 364.65 417.77 364.72 417.73Z" fill="#263238"/>
<path d="M364.57 415.05C364.64 415.05 364.57 415.39 364.57 415.75C364.57 416.11 364.67 416.42 364.57 416.46C364.47 416.5 364.25 416.21 364.25 415.76C364.25 415.31 364.51 415 364.57 415.05Z" fill="#263238"/>
<path d="M364.7 413.21C364.78 413.21 364.85 413.38 364.86 413.59C364.87 413.8 364.81 413.97 364.73 413.97C364.65 413.97 364.58 413.81 364.57 413.6C364.56 413.39 364.62 413.22 364.7 413.21Z" fill="#263238"/>
<path d="M219.15 444.4L216.86 433.29L237.66 428.86L241.18 445.09L239.91 445.45C234.24 446.99 210.97 452.87 206.91 452.53C202.33 452.14 219.15 444.4 219.15 444.4Z" fill="#FF725E"/>
<g opacity="0.4">
<path opacity="0.4" d="M233.6 446.53C233.536 444.71 234.145 442.93 235.31 441.53C236.454 440.147 238.073 439.241 239.85 438.99L241.09 444.8L233.6 446.53Z" fill="black"/>
</g>
<path opacity="0.4" d="M211 448.49C211 448.49 205.19 451.59 206.17 452.49C207.15 453.39 230.9 448.28 241.17 445.13L241.04 444.67L213.4 450.82C213.4 450.82 212.22 448.28 211 448.49Z" fill="black"/>
<path d="M241.37 444.55L241.02 444.67L240.02 444.95L236.27 445.95C233.11 446.74 228.72 447.78 223.84 448.83C218.96 449.88 214.54 450.72 211.32 451.29L207.51 451.94L206.51 452.1C206.387 452.114 206.263 452.114 206.14 452.1L206.5 452.01L207.5 451.81L211.3 451.08C214.5 450.46 218.93 449.59 223.8 448.54C228.67 447.49 233.06 446.49 236.24 445.74L240 444.85L241 444.62C241.12 444.58 241.244 444.556 241.37 444.55V444.55Z" fill="#263238"/>
<path d="M213.48 451.1C213.184 450.506 212.818 449.948 212.39 449.44C211.901 448.993 211.364 448.601 210.79 448.27C211.488 448.375 212.124 448.731 212.58 449.27C213.095 449.749 213.415 450.4 213.48 451.1Z" fill="#263238"/>
<path d="M218.95 446.68C218.9 446.73 218.53 446.43 218.13 446.02C217.73 445.61 217.43 445.23 217.48 445.18C217.53 445.13 217.9 445.43 218.31 445.84C218.72 446.25 219 446.63 218.95 446.68Z" fill="#263238"/>
<path d="M220.45 445.43C220.45 445.49 220.04 445.34 219.61 445.09C219.18 444.84 218.86 444.6 218.9 444.54C218.94 444.48 219.31 444.63 219.74 444.87C220.17 445.11 220.48 445.37 220.45 445.43Z" fill="#263238"/>
<path d="M221.09 443.24C221.09 443.31 220.63 443.47 220.09 443.61C219.73 443.73 219.348 443.771 218.97 443.73C219.291 443.528 219.653 443.401 220.03 443.36C220.37 443.242 220.732 443.201 221.09 443.24Z" fill="#263238"/>
<path d="M221.16 441.78C220.851 442.089 220.458 442.301 220.03 442.39C219.618 442.546 219.171 442.581 218.74 442.49C219.132 442.337 219.537 442.219 219.95 442.14C220.34 441.979 220.746 441.859 221.16 441.78V441.78Z" fill="#263238"/>
<path d="M217.86 445C217.433 445.172 216.98 445.267 216.52 445.28C216.024 445.325 215.526 445.325 215.03 445.28C214.732 445.257 214.437 445.204 214.15 445.12C214.06 445.092 213.977 445.047 213.905 444.987C213.833 444.927 213.773 444.853 213.73 444.77C213.687 444.677 213.673 444.573 213.689 444.471C213.705 444.37 213.75 444.275 213.82 444.2C214.275 443.839 214.842 443.648 215.423 443.661C216.003 443.674 216.561 443.889 217 444.27C217.262 444.491 217.476 444.763 217.63 445.07C217.693 445.177 217.731 445.296 217.74 445.42C217.508 445.043 217.218 444.706 216.88 444.42C216.509 444.13 216.06 443.956 215.59 443.92C215.312 443.887 215.029 443.91 214.76 443.987C214.49 444.064 214.239 444.194 214.02 444.37C213.84 444.57 214.02 444.8 214.24 444.89C214.506 444.974 214.782 445.028 215.06 445.05C215.541 445.11 216.026 445.134 216.51 445.12C217.34 445.08 217.85 445 217.86 445Z" fill="#263238"/>
<path d="M217.53 445.15C217.303 444.91 217.177 444.591 217.18 444.26C217.146 443.9 217.198 443.537 217.33 443.2C217.403 442.974 217.533 442.772 217.709 442.612C217.884 442.452 218.098 442.341 218.33 442.29C218.471 442.29 218.607 442.346 218.708 442.445C218.809 442.544 218.867 442.679 218.87 442.82C218.89 443.038 218.856 443.258 218.77 443.46C218.666 443.795 218.511 444.112 218.31 444.4C218.155 444.684 217.936 444.927 217.67 445.11C217.819 444.835 217.982 444.567 218.16 444.31C218.322 444.018 218.453 443.71 218.55 443.39C218.67 443.07 218.69 442.53 218.34 442.54C217.99 442.55 217.73 442.99 217.58 443.3C217.445 443.598 217.38 443.923 217.39 444.25C217.406 444.554 217.452 444.856 217.53 445.15Z" fill="#263238"/>
<path d="M239.73 439C239.73 439.05 239.12 439.07 238.21 439.38C237.012 439.776 235.951 440.504 235.151 441.48C234.351 442.455 233.844 443.638 233.69 444.89C233.56 445.89 233.69 446.45 233.61 446.45C233.53 446.45 233.55 446.31 233.52 446.04C233.478 445.651 233.478 445.259 233.52 444.87C233.634 443.569 234.135 442.332 234.96 441.32C235.796 440.317 236.909 439.583 238.16 439.21C238.534 439.095 238.92 439.025 239.31 439C239.449 438.981 239.591 438.981 239.73 439Z" fill="#263238"/>
<path d="M235.73 430.76C236.54 433.56 237.184 436.405 237.66 439.28C237.212 437.893 236.848 436.481 236.57 435.05C236.207 433.638 235.926 432.205 235.73 430.76Z" fill="#263238"/>
<path d="M230.55 445.06C229.599 445.515 228.589 445.835 227.55 446.01C226.541 446.275 225.503 446.413 224.46 446.42C224.46 446.34 225.83 446.13 227.46 445.76C229.09 445.39 230.53 445 230.55 445.06Z" fill="#263238"/>
<path d="M234.63 444.19C234.69 444.19 234.58 444.5 234.51 444.84C234.44 445.18 234.42 445.47 234.34 445.48C234.26 445.49 234.17 445.18 234.25 444.78C234.33 444.38 234.57 444.15 234.63 444.19Z" fill="#263238"/>
<path d="M235.76 442C235.82 442 235.76 442.28 235.56 442.55C235.36 442.82 235.21 442.99 235.15 442.95C235.09 442.91 235.15 442.67 235.34 442.41C235.53 442.15 235.7 441.91 235.76 442Z" fill="#263238"/>
<path d="M237.77 440.61C237.77 440.68 237.49 440.74 237.21 440.91C236.93 441.08 236.74 441.29 236.68 441.26C236.62 441.23 236.68 440.9 237.08 440.69C237.48 440.48 237.77 440.54 237.77 440.61Z" fill="#263238"/>
<path d="M239.24 439.86C239.24 439.92 239.19 440.05 239.03 440.16C238.87 440.27 238.71 440.29 238.67 440.24C238.63 440.19 238.73 440.04 238.89 439.94C239.05 439.84 239.2 439.8 239.24 439.86Z" fill="#263238"/>
<path d="M277 286.28C277 286.28 241.69 387.11 250 394.74C258.31 402.37 352.4 437.09 352.4 437.09L362.6 408.5L288.6 378.5L320 308.11C322.383 302.773 323.482 296.952 323.209 291.113C322.937 285.275 321.3 279.582 318.43 274.49L309.78 276.49L277 286.28Z" fill="#263238"/>
<path d="M252.2 292C252.2 292 184.2 324.3 184.94 335.52C185.68 346.74 214.46 440.19 214.46 440.19L242.57 433.46L224.15 350.33L318.48 299.79L291.42 282L252.2 292Z" fill="#263238"/>
<path d="M281.5 382.92C281.4 382.73 282.84 381.83 284.5 380.58C286.16 379.33 287.42 378.22 287.57 378.37C287.72 378.52 286.66 379.89 284.94 381.18C283.22 382.47 281.58 383.1 281.5 382.92Z" fill="#455A64"/>
<path d="M279 378.8C279 378.6 280.8 378.3 283.06 378.14C285.32 377.98 287.17 378.02 287.18 378.22C287.19 378.42 285.38 378.72 283.12 378.88C280.86 379.04 279 379 279 378.8Z" fill="#455A64"/>
<path d="M272.65 309.69C272.592 309.755 272.545 309.83 272.51 309.91L272.14 310.56L270.77 313.11C269.61 315.33 268.03 318.6 266.25 322.71C264.47 326.82 262.57 331.82 260.69 337.45C258.81 343.08 257 349.33 255.28 356C253.56 362.67 252.14 369 250.91 374.78C250.303 377.68 249.73 380.427 249.19 383.02C248.94 384.3 248.64 385.55 248.51 386.78C248.38 387.96 248.38 389.15 248.51 390.33C248.623 391.407 248.872 392.465 249.25 393.48C249.621 394.39 250.246 395.175 251.05 395.74C252.274 396.659 253.583 397.46 254.96 398.13C256.09 398.69 256.96 399.13 257.59 399.33L258.29 399.6C258.369 399.639 258.453 399.666 258.54 399.68L258.31 399.56L257.63 399.23C257.04 398.95 256.16 398.54 255.06 397.95C253.71 397.257 252.428 396.44 251.23 395.51C250.48 394.967 249.901 394.221 249.56 393.36C249.203 392.373 248.971 391.345 248.87 390.3C248.746 389.147 248.746 387.983 248.87 386.83C249 385.63 249.31 384.4 249.57 383.1C250.13 380.53 250.72 377.78 251.34 374.88C252.6 369.1 254.04 362.75 255.74 356.13C257.44 349.51 259.25 343.26 261.11 337.64C262.97 332.02 264.85 327.04 266.55 322.89C268.25 318.74 269.81 315.48 270.91 313.24L272.19 310.65L272.51 309.97C272.565 309.881 272.612 309.787 272.65 309.69V309.69Z" fill="#455A64"/>
<path d="M219 124.39C218.54 121.48 215.92 119.25 213.06 118.51C210.155 117.926 207.149 118.099 204.33 119.01C202.202 119.413 200.24 120.436 198.69 121.95C197.337 123.702 196.631 125.867 196.69 128.08C196.63 130.27 196.92 132.46 196.69 134.64C196.43 137.273 195.499 139.795 193.986 141.966C192.474 144.137 190.43 145.884 188.05 147.04C183.12 149.38 177.12 148.97 172.46 151.81C170.251 153.161 168.509 155.158 167.471 157.531C166.433 159.904 166.149 162.538 166.656 165.078C167.163 167.618 168.437 169.941 170.307 171.733C172.176 173.525 174.551 174.701 177.11 175.1C176.179 177.222 175.992 179.596 176.581 181.837C177.169 184.078 178.498 186.054 180.352 187.444C182.205 188.835 184.475 189.557 186.791 189.495C189.107 189.432 191.334 188.588 193.11 187.1C193.944 188.788 195.223 190.216 196.809 191.231C198.395 192.246 200.228 192.809 202.11 192.86C203.987 192.885 205.851 192.539 207.595 191.842C209.338 191.146 210.927 190.112 212.27 188.8C214.944 186.152 216.944 182.901 218.1 179.32C221.17 170.55 220.59 160.99 220.1 151.71C219.61 142.43 223 136.23 219 124.39Z" fill="#263238"/>
<path d="M188 151.39C182.6 151.64 179.61 145.18 179.75 142.1C179.89 139.02 182.03 136.65 184.54 134.88C187.835 132.781 191.439 131.212 195.22 130.23C202.36 128.78 200.78 122.96 210.95 123.37C215.63 123.56 222.43 126.06 225.12 129.89C227.81 133.72 229.31 138.25 230.77 142.71" fill="#263238"/>
<path d="M218.2 129.41L220 132.87L249.59 183.43C253.02 189.3 250.71 196.93 244.4 200.56C238.02 204.23 229.97 202.44 226.4 196.56C222.65 190.39 218.6 183.97 218.6 183.97C218.6 183.97 209.85 187.45 201.94 178.07C198 173.4 193.16 164.78 189.42 157.6C188.618 156.054 188.139 154.361 188.012 152.623C187.885 150.886 188.113 149.141 188.681 147.495C189.25 145.848 190.148 144.335 191.32 143.046C192.492 141.758 193.915 140.721 195.5 140L218.2 129.41Z" fill="#FFBE9D"/>
<path d="M195.45 161.91C195.655 162.259 195.988 162.514 196.379 162.621C196.77 162.727 197.186 162.677 197.54 162.48C197.891 162.3 198.156 161.989 198.278 161.614C198.4 161.239 198.368 160.831 198.19 160.48C197.985 160.131 197.652 159.876 197.261 159.769C196.871 159.663 196.454 159.713 196.1 159.91C195.925 159.998 195.77 160.12 195.643 160.268C195.515 160.416 195.419 160.588 195.358 160.774C195.298 160.96 195.275 161.156 195.29 161.351C195.306 161.546 195.36 161.736 195.45 161.91V161.91Z" fill="#263238"/>
<path d="M193.91 160.9C194.18 160.98 194.74 159.62 196.17 158.76C197.6 157.9 199.09 157.99 199.17 157.76C199.25 157.53 198.84 157.42 198.17 157.36C197.291 157.303 196.417 157.524 195.67 157.99C194.922 158.435 194.337 159.108 194 159.91C193.74 160.47 193.78 160.88 193.91 160.9Z" fill="#263238"/>
<path d="M209.15 153.63C209.355 153.979 209.688 154.234 210.079 154.341C210.47 154.447 210.886 154.397 211.24 154.2C211.415 154.112 211.57 153.99 211.698 153.842C211.825 153.694 211.922 153.522 211.982 153.336C212.043 153.15 212.066 152.954 212.05 152.759C212.034 152.564 211.98 152.374 211.89 152.2C211.685 151.851 211.352 151.596 210.961 151.489C210.571 151.383 210.154 151.433 209.8 151.63C209.625 151.718 209.47 151.84 209.343 151.988C209.215 152.136 209.119 152.309 209.058 152.495C208.998 152.68 208.975 152.877 208.99 153.071C209.006 153.266 209.06 153.456 209.15 153.63V153.63Z" fill="#263238"/>
<path d="M208.15 152.68C208.42 152.75 208.98 151.4 210.42 150.54C211.86 149.68 213.33 149.76 213.42 149.54C213.51 149.32 213.1 149.2 212.42 149.15C211.543 149.094 210.67 149.311 209.92 149.77C209.172 150.215 208.587 150.888 208.25 151.69C208 152.24 208 152.65 208.15 152.68Z" fill="#263238"/>
<path d="M209.36 166.44C208.46 166.659 207.593 166.995 206.78 167.44C206.39 167.62 206 167.76 205.78 167.55C205.526 167.189 205.383 166.761 205.37 166.32C205.18 165.22 204.98 164.08 204.77 162.88C203.88 158.01 203 154.09 202.77 154.13C202.54 154.17 203.13 158.13 204.02 163.01L204.68 166.44C204.714 167.021 204.956 167.571 205.36 167.99C205.488 168.091 205.639 168.16 205.799 168.189C205.959 168.219 206.124 168.209 206.28 168.16C206.513 168.092 206.738 167.998 206.95 167.88C207.812 167.505 208.621 167.021 209.36 166.44V166.44Z" fill="#263238"/>
<path d="M218.6 184C223.531 181.127 227.567 176.942 230.26 171.91C230.26 171.91 231.19 181.07 220.26 186.37L218.6 184Z" fill="#EB996E"/>
<path d="M204.4 147.29C204.77 147.59 206.09 146.54 207.89 145.73C209.69 144.92 211.33 144.56 211.34 144.07C211.34 143.85 210.89 143.62 210.11 143.58C209.099 143.545 208.094 143.754 207.18 144.19C206.261 144.608 205.453 145.234 204.82 146.02C204.35 146.64 204.22 147.14 204.4 147.29Z" fill="#263238"/>
<path d="M191.94 156.44C192.38 156.61 193.17 155.68 194.34 154.95C195.51 154.22 196.67 153.85 196.69 153.37C196.69 153.14 196.34 152.91 195.69 152.87C194.877 152.852 194.076 153.077 193.392 153.518C192.708 153.958 192.171 154.592 191.85 155.34C191.66 155.93 191.73 156.35 191.94 156.44Z" fill="#263238"/>
<path d="M186.55 151.19C186.55 151.19 193.64 150.97 199.08 143.44C202.66 138.5 207.67 134.37 209.43 134.7C211.19 135.03 214.04 139.86 219.59 138.81C219.59 138.81 224.23 148.49 227.84 146.17C231.45 143.85 225.84 133.32 225.84 133.32L213.69 125L198.64 134.11L189.81 140.43L183.49 146.31L186.55 151.19Z" fill="#263238"/>
<path d="M225.5 143.52C225.61 143.36 230.5 137.91 234.1 144.12C237.7 150.33 230.7 152.66 230.59 152.49C230.48 152.32 225.5 143.52 225.5 143.52Z" fill="#FFBE9D"/>
<path d="M231.13 149C231.13 149 231.28 149 231.51 149C231.67 148.983 231.824 148.934 231.965 148.857C232.106 148.779 232.23 148.675 232.33 148.55C232.586 148.064 232.706 147.518 232.68 146.97C232.654 146.421 232.481 145.889 232.18 145.43C231.89 144.885 231.48 144.413 230.98 144.05C230.809 143.891 230.603 143.776 230.379 143.713C230.154 143.651 229.918 143.643 229.69 143.69C229.548 143.732 229.424 143.822 229.339 143.943C229.253 144.065 229.212 144.212 229.22 144.36C229.22 144.58 229.35 144.68 229.32 144.71C229.29 144.74 229.13 144.71 229.03 144.4C228.971 144.228 228.971 144.042 229.03 143.87C229.077 143.756 229.147 143.652 229.234 143.564C229.322 143.477 229.426 143.407 229.54 143.36C229.825 143.265 230.129 143.243 230.425 143.298C230.72 143.352 230.997 143.48 231.23 143.67C231.802 144.059 232.272 144.581 232.6 145.19C233.29 146.47 233.32 148.01 232.6 148.79C232.462 148.934 232.293 149.045 232.106 149.116C231.919 149.187 231.719 149.216 231.52 149.2C231.23 149.18 231.11 149.06 231.13 149Z" fill="#EB996E"/>
<path d="M232 154.82C232 154.82 232.07 154.97 232.31 155.14C232.657 155.373 233.063 155.501 233.48 155.51C233.793 155.525 234.106 155.476 234.398 155.364C234.691 155.252 234.957 155.08 235.18 154.86C235.453 154.587 235.663 154.258 235.794 153.895C235.925 153.532 235.975 153.144 235.94 152.76C235.88 152.32 235.718 151.901 235.467 151.534C235.216 151.168 234.883 150.866 234.495 150.651C234.106 150.437 233.673 150.316 233.229 150.298C232.786 150.281 232.344 150.367 231.94 150.55C231.797 150.6 231.667 150.682 231.56 150.79C232.061 150.612 232.588 150.518 233.12 150.51C233.686 150.53 234.231 150.726 234.68 151.07C235.228 151.493 235.587 152.114 235.68 152.8C235.709 153.137 235.666 153.476 235.554 153.795C235.442 154.114 235.263 154.405 235.03 154.65C234.837 154.85 234.606 155.009 234.35 155.117C234.093 155.226 233.818 155.281 233.54 155.28C232.992 155.286 232.455 155.125 232 154.82V154.82Z" fill="#455A64"/>
<path d="M205.85 124.23C205.85 124.23 205.75 124.29 205.57 124.44L205.24 124.72L204.84 125.14C204.023 126.076 203.321 127.106 202.75 128.21C201.938 129.846 200.93 131.377 199.75 132.77C199.019 133.542 198.123 134.14 197.13 134.52C196.13 134.92 194.96 135.16 193.81 135.52C192.655 135.798 191.576 136.327 190.65 137.07C189.82 137.816 189.208 138.773 188.88 139.84C188.572 140.809 188.494 141.836 188.65 142.84C188.792 143.7 189.098 144.525 189.55 145.27C190.208 146.337 191.114 147.229 192.19 147.87C192.484 148.034 192.788 148.181 193.1 148.31C193.209 148.359 193.323 148.396 193.44 148.42C193.44 148.42 192.99 148.22 192.26 147.76C191.226 147.101 190.363 146.206 189.74 145.15C189.315 144.426 189.03 143.629 188.9 142.8C188.776 141.849 188.864 140.882 189.16 139.97C189.472 138.958 190.057 138.052 190.85 137.35C191.729 136.64 192.753 136.131 193.85 135.86C194.99 135.53 196.14 135.29 197.2 134.86C198.268 134.472 199.228 133.834 200 133C201.175 131.579 202.163 130.013 202.94 128.34C203.495 127.242 204.166 126.206 204.94 125.25L205.32 124.81L205.62 124.52C205.77 124.33 205.86 124.24 205.85 124.23Z" fill="#455A64"/>
<path d="M183.74 136.44C183.514 136.536 183.308 136.671 183.13 136.84C182.623 137.276 182.199 137.802 181.88 138.39C181.412 139.267 181.142 140.237 181.09 141.23C181.037 142.448 181.262 143.662 181.75 144.78C182.664 146.776 184.055 148.517 185.8 149.85C186.45 150.37 187 150.76 187.39 151.02C187.581 151.169 187.789 151.293 188.01 151.39C188.01 151.39 187.21 150.75 185.96 149.67C184.297 148.321 182.964 146.611 182.06 144.67C181.594 143.598 181.369 142.438 181.4 141.27C181.435 140.315 181.67 139.378 182.09 138.52C182.507 137.731 183.066 137.026 183.74 136.44V136.44Z" fill="#455A64"/>
<path d="M210.93 122.61C210.93 122.61 210.93 122.67 210.85 122.8C210.817 122.995 210.817 123.195 210.85 123.39C210.972 124.125 211.374 124.784 211.97 125.23C212.862 125.824 213.836 126.285 214.86 126.6C216.042 127.072 217.097 127.815 217.94 128.77C218.789 129.722 219.405 130.859 219.74 132.09C220.002 133.098 220.08 134.145 219.97 135.18C219.833 136.137 219.581 137.074 219.22 137.97C219.385 137.761 219.516 137.529 219.61 137.28C219.903 136.621 220.105 135.924 220.21 135.21C220.345 134.136 220.274 133.047 220 132C219.669 130.716 219.038 129.53 218.158 128.539C217.278 127.548 216.175 126.78 214.94 126.3C213.935 126.008 212.974 125.584 212.08 125.04C211.677 124.783 211.353 124.418 211.146 123.987C210.939 123.556 210.858 123.075 210.91 122.6L210.93 122.61Z" fill="#455A64"/>
<path d="M215.17 166.58C215.634 166.793 216.035 167.124 216.331 167.539C216.628 167.955 216.81 168.442 216.86 168.95C216.817 169.323 216.673 169.678 216.444 169.975C216.215 170.273 215.91 170.503 215.56 170.64C215.04 170.866 214.46 170.917 213.908 170.785C213.356 170.654 212.862 170.347 212.5 169.91C212.161 169.457 212 168.895 212.048 168.331C212.096 167.766 212.349 167.24 212.76 166.85C212.978 166.669 213.231 166.534 213.503 166.455C213.776 166.376 214.061 166.353 214.342 166.389C214.624 166.425 214.895 166.518 215.139 166.662C215.382 166.807 215.594 167 215.76 167.23" fill="#EB996E"/>
<path d="M200.35 125.36C200.35 125.43 201.24 124.77 202.76 124.04C204.737 123.095 206.89 122.574 209.08 122.51C211.273 122.481 213.448 122.917 215.46 123.79C217.01 124.46 217.87 125.08 217.92 125.01C217.97 124.94 217.75 124.8 217.36 124.51C216.814 124.106 216.232 123.755 215.62 123.46C213.585 122.456 211.339 121.952 209.07 121.99C206.805 122.047 204.585 122.636 202.59 123.71C201.99 124.033 201.421 124.412 200.89 124.84C200.51 125.14 200.33 125.33 200.35 125.36Z" fill="#FF725E"/>
<path d="M214.18 164.88C213.93 165.01 214.87 166.57 214.18 168.47C213.49 170.37 211.76 171.21 211.88 171.47C212 171.73 212.43 171.55 213.14 171.15C214.065 170.615 214.773 169.773 215.14 168.77C215.478 167.807 215.435 166.752 215.02 165.82C214.68 165.09 214.28 164.81 214.18 164.88Z" fill="#263238"/>
<path d="M248.7 179.12C248.7 179.12 243.77 170.53 242.83 171.89C241.89 173.25 218.71 188.3 220.27 191C221.83 193.7 226.4 196.53 226.4 196.53L248.7 179.12Z" fill="#FF725E"/>
<path d="M157.48 273.73C152.98 274.84 144.19 276.89 141.39 277.2C135.62 277.84 135.56 277.34 135.61 276.66C135.74 274.84 145.72 275.15 143.61 273.85C141.5 272.55 131.33 274.85 131.55 272.98C131.83 270.51 142.28 270.98 143.16 270.98C144.04 270.98 144.07 269.68 143.27 269.75C142.12 269.83 130 270.47 130.27 268.04C130.41 266.69 132.83 267.13 132.83 267.13C132.83 267.13 144.2 267.37 144.28 266.22C144.36 265.07 137.69 264.69 135.43 264.73C133.17 264.77 132.29 263.73 133.11 262.73C133.66 262.06 140.58 261.79 142.82 261.8C145.06 261.81 151.18 261.97 148.26 259.46C145.34 256.95 144.05 253.93 144.26 252.86C144.338 252.62 144.488 252.41 144.69 252.259C144.893 252.108 145.137 252.023 145.389 252.017C145.641 252.01 145.889 252.082 146.099 252.222C146.309 252.362 146.47 252.564 146.56 252.8C147.221 253.904 148.028 254.913 148.96 255.8C149.69 256.553 150.547 257.172 151.49 257.63C152.59 258.17 155.26 259.35 156.08 259.68" fill="#FFBE9D"/>
<path d="M214.59 205.43L199.83 253L154.64 257.55L155.5 274.55C155.5 274.55 208.74 281.77 216.66 273.84C224.58 265.91 236 232.26 236 232.26L214.59 205.43Z" fill="#FF725E"/>
<path d="M283.46 186.23L318.46 274.49L251.46 293.44L252.46 265.24L216 214.73C214.856 213.149 214.256 211.238 214.292 209.287C214.328 207.335 214.998 205.448 216.2 203.91C222.96 195.24 237.93 178.75 258.41 171.77C264.76 169.59 280.17 172.09 283.46 186.23Z" fill="#FF725E"/>
<path d="M251 267.84C246.87 275.64 252.38 286.07 259.41 287.84C266.44 289.61 276.32 283.16 276.41 274.34C276.55 262.42 271.74 256.62 267.67 255.58C262.51 254.28 255.18 260 251 267.84Z" fill="#263238"/>
<path d="M250.7 268.42C250.7 268.42 250.96 268.71 251.5 269.16C252.263 269.792 253.065 270.377 253.9 270.91C259.441 274.487 265.915 276.349 272.51 276.26C273.514 276.258 274.516 276.188 275.51 276.05C275.878 276.033 276.241 275.966 276.59 275.85C276.59 275.76 275.04 275.93 272.59 275.85C266.09 275.74 259.735 273.912 254.17 270.55C252 269.31 250.76 268.34 250.7 268.42Z" fill="#FAFAFA"/>
<path d="M254.15 263.59C254.256 263.902 254.412 264.196 254.61 264.46C255.1 265.209 255.677 265.897 256.33 266.51C258.524 268.517 261.207 269.914 264.11 270.56C266.989 271.183 269.941 271.398 272.88 271.2C274 271.14 274.88 271.06 275.53 270.99C275.87 270.988 276.208 270.93 276.53 270.82C275.324 270.754 274.116 270.754 272.91 270.82C270.009 270.908 267.108 270.646 264.27 270.04C261.448 269.411 258.822 268.103 256.62 266.23C255.737 265.408 254.911 264.526 254.15 263.59Z" fill="#FF725E"/>
<path d="M257 259.83C257 259.83 257.16 260.06 257.51 260.41C258.015 260.897 258.557 261.345 259.13 261.75C261.013 263.097 263.114 264.112 265.34 264.75C267.574 265.391 269.9 265.652 272.22 265.52C272.919 265.476 273.613 265.386 274.3 265.25C274.78 265.14 275.05 265.07 275.04 265.03C275.03 264.99 273.95 265.12 272.2 265.15C267.632 265.223 263.148 263.92 259.33 261.41C257.9 260.49 257.08 259.77 257 259.83Z" fill="#FAFAFA"/>
<path d="M261.29 257.32C261.746 257.744 262.275 258.083 262.85 258.32C264.18 259.011 265.591 259.535 267.05 259.88C268.507 260.234 270.001 260.415 271.5 260.42C272.123 260.47 272.75 260.406 273.35 260.23C271.276 260.064 269.212 259.781 267.17 259.38C265.172 258.807 263.209 258.119 261.29 257.32V257.32Z" fill="#FF725E"/>
<path d="M250.48 275.63C250.701 275.861 250.953 276.06 251.23 276.22C251.942 276.719 252.679 277.18 253.44 277.6C258.47 280.419 264.116 281.958 269.88 282.08C270.747 282.106 271.615 282.086 272.48 282.02C272.799 282.026 273.117 281.979 273.42 281.88C273.42 281.8 272.07 281.88 269.89 281.72C264.216 281.376 258.673 279.865 253.61 277.28C251.67 276.29 250.53 275.55 250.48 275.63Z" fill="#FF725E"/>
<path d="M252.65 282.44C253.263 283.009 253.958 283.484 254.71 283.85C258.262 285.79 262.277 286.72 266.32 286.54C267.154 286.549 267.984 286.427 268.78 286.18C263.155 286.517 257.553 285.218 252.65 282.44V282.44Z" fill="#FAFAFA"/>
<path d="M240.38 266.86C238.8 273.46 244.91 280.18 250.48 280.18C256.05 280.18 262.19 273.46 260.58 266.86C258.4 257.95 253.71 254.56 250.48 254.56C246.33 254.56 242 260.24 240.38 266.86Z" fill="#FF725E"/>
<path opacity="0.3" d="M240.38 266.86C238.8 273.46 244.91 280.18 250.48 280.18C256.05 280.18 262.19 273.46 260.58 266.86C258.4 257.95 253.71 254.56 250.48 254.56C246.33 254.56 242 260.24 240.38 266.86Z" fill="white"/>
<path d="M243.91 276.62C242.17 282.7 247.58 289.18 252.77 289.4C257.96 289.62 263.91 283.62 262.68 277.4C261 269.04 256.78 265.7 253.78 265.57C249.92 265.43 245.64 270.54 243.91 276.62Z" fill="#FF725E"/>
<path d="M244.07 282.43C244.195 282.529 244.333 282.61 244.48 282.67C244.904 282.861 245.351 282.995 245.81 283.07C247.263 283.335 248.762 283.037 250.003 282.236C251.243 281.436 252.133 280.193 252.49 278.76C252.863 277.413 252.742 275.976 252.15 274.71C251.985 274.341 251.723 274.023 251.392 273.791C251.061 273.558 250.673 273.42 250.27 273.39C250.048 273.382 249.826 273.423 249.622 273.511C249.418 273.599 249.236 273.732 249.09 273.9C248.798 274.232 248.635 274.658 248.63 275.1C248.644 275.524 248.747 275.941 248.931 276.323C249.115 276.705 249.377 277.045 249.7 277.32C250.309 277.909 251.055 278.339 251.87 278.57C252.667 278.816 253.512 278.859 254.33 278.695C255.147 278.53 255.91 278.164 256.55 277.63C257.148 277.136 257.628 276.516 257.957 275.814C258.286 275.112 258.454 274.345 258.45 273.57C258.446 272.826 258.16 272.111 257.65 271.57C257.395 271.311 257.073 271.127 256.721 271.037C256.369 270.947 255.998 270.955 255.65 271.06C255.326 271.182 255.047 271.401 254.851 271.687C254.656 271.974 254.555 272.313 254.56 272.66C254.562 272.965 254.625 273.266 254.745 273.546C254.865 273.826 255.04 274.079 255.26 274.29C255.995 274.979 256.954 275.38 257.96 275.42C258.701 275.454 259.44 275.317 260.12 275.02C260.55 274.839 260.943 274.582 261.28 274.26C261.51 274.04 261.6 273.91 261.59 273.9C261.122 274.284 260.599 274.597 260.04 274.83C259.384 275.081 258.68 275.184 257.98 275.13C257.059 275.067 256.19 274.677 255.53 274.03C255.348 273.854 255.204 273.643 255.107 273.409C255.011 273.175 254.964 272.923 254.97 272.67C254.965 272.411 255.041 272.157 255.186 271.942C255.33 271.727 255.538 271.563 255.78 271.47C256.054 271.399 256.342 271.401 256.615 271.475C256.889 271.548 257.138 271.691 257.34 271.89C257.761 272.363 257.99 272.977 257.98 273.61C257.977 274.309 257.82 274.999 257.519 275.63C257.218 276.261 256.781 276.818 256.24 277.26C255.659 277.735 254.97 278.059 254.234 278.204C253.498 278.349 252.737 278.31 252.02 278.09C251.288 277.882 250.618 277.498 250.07 276.97C249.801 276.743 249.58 276.464 249.422 276.149C249.264 275.835 249.172 275.491 249.15 275.14C249.142 274.986 249.165 274.831 249.217 274.685C249.269 274.54 249.349 274.406 249.453 274.291C249.558 274.177 249.683 274.084 249.824 274.019C249.964 273.953 250.116 273.916 250.27 273.91C250.586 273.935 250.889 274.047 251.146 274.232C251.404 274.417 251.605 274.669 251.73 274.96C252.283 276.12 252.407 277.438 252.08 278.68C251.815 279.773 251.23 280.761 250.4 281.52C249.779 282.052 249.053 282.449 248.27 282.685C247.486 282.921 246.662 282.991 245.85 282.89C245.244 282.79 244.648 282.636 244.07 282.43V282.43Z" fill="#FAFAFA"/>
<path d="M251 289.27C251.3 288.112 251.827 287.024 252.55 286.07C253.358 285.078 254.439 284.344 255.66 283.96C255.985 283.838 256.332 283.789 256.678 283.817C257.024 283.845 257.359 283.948 257.66 284.12C258.24 284.51 258.5 285.42 257.92 285.86C257.782 285.973 257.621 286.054 257.448 286.099C257.276 286.144 257.096 286.151 256.92 286.12C256.578 286.05 256.276 285.849 256.08 285.56C255.881 285.269 255.763 284.931 255.736 284.58C255.71 284.229 255.777 283.877 255.93 283.56C256.19 282.991 256.584 282.493 257.078 282.109C257.573 281.726 258.154 281.469 258.77 281.36C259.619 281.209 260.495 281.331 261.27 281.71C261.83 281.97 262.09 282.21 262.12 282.17C261.927 281.897 261.669 281.677 261.37 281.53C260.572 281.049 259.631 280.862 258.71 281C258.018 281.094 257.36 281.36 256.797 281.774C256.235 282.188 255.785 282.737 255.49 283.37C255.3 283.761 255.216 284.195 255.248 284.629C255.28 285.063 255.425 285.481 255.67 285.84C255.94 286.239 256.357 286.516 256.83 286.61C257.078 286.652 257.332 286.641 257.575 286.577C257.818 286.513 258.045 286.398 258.24 286.24C258.438 286.074 258.588 285.856 258.672 285.611C258.757 285.367 258.773 285.103 258.72 284.85C258.613 284.38 258.335 283.966 257.94 283.69C257.574 283.468 257.161 283.333 256.735 283.297C256.308 283.261 255.879 283.323 255.48 283.48C254.177 283.909 253.036 284.725 252.21 285.82C251.655 286.546 251.26 287.381 251.05 288.27C250.969 288.597 250.952 288.937 251 289.27V289.27Z" fill="#FAFAFA"/>
<path d="M249.11 267.75C249.11 267.8 249.43 268.13 250.11 268.41C251.046 268.774 252.067 268.857 253.049 268.65C254.032 268.442 254.932 267.952 255.64 267.24C256.18 266.7 256.36 266.24 256.31 266.24C256.26 266.24 255.95 266.54 255.4 266.98C254.687 267.559 253.846 267.96 252.947 268.149C252.048 268.339 251.116 268.312 250.23 268.07C249.56 267.89 249.15 267.68 249.11 267.75Z" fill="#FAFAFA"/>
<g opacity="0.2">
<path opacity="0.2" d="M255.24 288.8C255.967 288.423 256.612 287.906 257.14 287.28C257.398 286.962 257.561 286.578 257.613 286.171C257.664 285.765 257.601 285.352 257.43 284.98C257.219 284.681 256.947 284.431 256.631 284.247C256.315 284.062 255.964 283.947 255.6 283.91C254.874 283.849 254.153 283.742 253.44 283.59C252.765 283.34 252.146 282.958 251.619 282.467C251.092 281.976 250.667 281.386 250.37 280.73C249.69 279.46 249.27 278.06 248.6 276.79C248.458 276.422 248.229 276.094 247.933 275.833C247.637 275.571 247.283 275.385 246.9 275.29C245.83 275.18 245.06 276.29 244.74 277.29C244.274 278.876 244.242 280.559 244.649 282.161C245.055 283.764 245.884 285.228 247.05 286.4C249.41 288.7 252.12 289.81 255.24 288.76" fill="black"/>
</g>
<path d="M230.26 257.93C236.84 249.23 244.42 240.78 247.34 230.26C249.64 221.98 248.81 213.26 248.54 204.62C248.27 195.98 248.73 186.99 253.17 179.62C257.61 172.25 265.6 169.47 275.33 173.33C278.567 174.932 281.094 177.68 282.42 181.04C289.7 201.74 291.91 217.84 293.24 239.75C293.94 251.28 293.67 263 290.72 274.18C287.77 285.36 282 296 273.08 303.39C264.16 310.78 251.92 314.44 240.69 311.71C229.46 308.98 219.87 299.24 218.69 287.71C217.65 276.88 223.67 266.63 230.26 257.93ZM240.72 265.93C241.72 269.99 245.07 273.04 248.72 275.12C253.55 277.9 259.29 279.44 264.72 278.36C271.39 277.03 276.87 271.93 280.06 265.91C283.25 259.89 284.42 253.03 285.06 246.25C286.77 228.02 284.89 209.39 282.83 191.19L260.71 226.3C255.12 236.05 247.56 244.65 242.78 254.82C241.15 258.34 239.83 262.23 240.72 266V265.93Z" fill="#455A64"/>
<path d="M257.22 296.82C257.454 296.869 257.696 296.869 257.93 296.82C258.583 296.785 259.23 296.678 259.86 296.5C261.963 295.931 263.837 294.722 265.221 293.039C266.604 291.356 267.429 289.283 267.58 287.11C267.63 286.459 267.606 285.805 267.51 285.16C267.44 284.71 267.37 284.46 267.33 284.47C267.29 284.48 267.41 285.47 267.21 287.07C266.973 289.141 266.144 291.1 264.82 292.711C263.497 294.322 261.736 295.516 259.75 296.15C258.23 296.69 257.21 296.72 257.22 296.82Z" fill="#263238"/>
<path d="M234.71 291.72C234.81 291.72 234.85 290.81 235.35 289.45C235.969 287.676 237.095 286.122 238.588 284.981C240.081 283.84 241.876 283.162 243.75 283.03C245.19 282.92 246.09 283.11 246.1 283.03C245.35 282.723 244.538 282.599 243.73 282.67C241.756 282.724 239.847 283.391 238.27 284.58C236.707 285.783 235.562 287.449 235 289.34C234.722 290.101 234.623 290.915 234.71 291.72V291.72Z" fill="#263238"/>
<path d="M225.73 278.2C225.81 278.25 226.25 277.26 227.36 275.98C228.799 274.289 230.707 273.062 232.843 272.455C234.979 271.848 237.247 271.888 239.36 272.57C240.98 273.06 241.87 273.67 241.92 273.57C241.97 273.47 241.74 273.36 241.33 273.1C240.746 272.731 240.122 272.43 239.47 272.2C237.303 271.403 234.939 271.316 232.719 271.95C230.499 272.585 228.539 273.908 227.12 275.73C226.692 276.269 226.323 276.852 226.02 277.47C225.77 277.93 225.7 278.19 225.73 278.2Z" fill="#263238"/>
<path d="M243 214.4C243.11 214.49 243.92 213.72 244.81 212.68C245.7 211.64 246.34 210.68 246.23 210.62C246.12 210.56 245.31 211.3 244.42 212.34C243.53 213.38 242.88 214.31 243 214.4Z" fill="white"/>
<path d="M240.94 209C240.817 208.083 240.609 207.179 240.32 206.3C240.199 205.384 239.999 204.481 239.72 203.6C239.418 205.49 239.855 207.423 240.94 209Z" fill="white"/>
<path d="M234.53 211.76C234.63 211.66 234.09 210.91 233.32 210.08C232.55 209.25 231.83 208.65 231.72 208.75C231.61 208.85 232.16 209.6 232.93 210.43C233.7 211.26 234.42 211.85 234.53 211.76Z" fill="white"/>
<path d="M242.11 193C242.456 193.927 242.877 194.823 243.37 195.68C243.705 196.609 244.116 197.509 244.6 198.37C244.444 196.339 243.56 194.432 242.11 193V193Z" fill="white"/>
<path d="M246.33 188.32C246.886 187.459 247.289 186.508 247.52 185.51C247.921 184.557 248.154 183.542 248.21 182.51C247.658 183.372 247.258 184.322 247.03 185.32C246.635 186.275 246.398 187.289 246.33 188.32Z" fill="white"/>
<path d="M233.74 193.94C235.382 192.801 236.808 191.379 237.95 189.74C236.314 190.886 234.89 192.307 233.74 193.94V193.94Z" fill="white"/>
<path d="M223.91 200.46C225.095 200.72 226.311 200.801 227.52 200.7C228.727 200.777 229.939 200.683 231.12 200.42C228.729 200.073 226.301 200.073 223.91 200.42V200.46Z" fill="white"/>
<path d="M225.28 208.6C225.37 208.48 224.4 207.6 223.12 206.71C222.391 206.072 221.55 205.573 220.64 205.24C221.25 205.989 221.984 206.629 222.81 207.13C223.538 207.765 224.375 208.263 225.28 208.6V208.6Z" fill="white"/>
<path d="M227.72 186.72C227.61 186.82 228.06 187.52 228.72 188.29C229.38 189.06 230.01 189.62 230.12 189.53C230.23 189.44 229.78 188.73 229.12 187.96C228.46 187.19 227.83 186.63 227.72 186.72Z" fill="white"/>
<path d="M237 182.34C237.12 182.42 237.77 181.69 238.45 180.71C239.13 179.73 239.59 178.87 239.45 178.79C239.31 178.71 238.68 179.43 238 180.41C237.32 181.39 236.85 182.26 237 182.34Z" fill="white"/>
<path d="M224.21 253.78C224.261 252.881 224.135 251.981 223.84 251.13C223.709 250.235 223.411 249.374 222.96 248.59C222.916 249.492 223.041 250.394 223.33 251.25C223.46 252.142 223.758 253 224.21 253.78Z" fill="white"/>
<path d="M212.5 244.6C213.263 244.688 214.035 244.602 214.76 244.35C215.98 244.07 216.94 243.74 216.9 243.6C215.375 243.582 213.867 243.924 212.5 244.6Z" fill="white"/>
<path d="M208.63 245.16C208.548 243.493 208.119 241.862 207.37 240.37C207.324 241.207 207.45 242.044 207.74 242.83C207.87 243.66 208.173 244.454 208.63 245.16V245.16Z" fill="white"/>
<path d="M214.44 257.14C215.229 256.793 215.94 256.289 216.53 255.66C217.6 254.74 218.38 253.9 218.29 253.79C217.498 254.139 216.784 254.642 216.19 255.27C215.13 256.19 214.34 257 214.44 257.14Z" fill="white"/>
<path d="M207.73 256.41C207.942 255.488 207.914 254.528 207.65 253.62C207.549 252.678 207.204 251.779 206.65 251.01C206.924 252.825 207.277 254.627 207.71 256.41H207.73Z" fill="white"/>
<path d="M211.88 268.2C212.911 267.832 213.876 267.302 214.74 266.63C215.699 266.106 216.566 265.43 217.31 264.63C216.279 264.998 215.314 265.528 214.45 266.2C213.494 266.728 212.627 267.403 211.88 268.2Z" fill="white"/>
<path d="M198.68 263.82C199.222 264.629 199.898 265.34 200.68 265.92C201.367 266.626 202.172 267.205 203.06 267.63C201.824 266.112 200.331 264.823 198.65 263.82H198.68Z" fill="white"/>
<path d="M193.07 258.05C194.246 258.347 195.459 258.468 196.67 258.41C197.875 258.53 199.091 258.476 200.28 258.25C197.899 257.837 195.47 257.77 193.07 258.05V258.05Z" fill="white"/>
<path d="M195.46 273.94C196.565 273.97 197.67 273.933 198.77 273.83C199.873 273.886 200.977 273.886 202.08 273.83C201.039 273.365 199.896 273.176 198.76 273.28C197.622 273.219 196.487 273.446 195.46 273.94V273.94Z" fill="white"/>
<path d="M192.71 268.21C192.588 267.385 192.295 266.595 191.85 265.89C191.553 265.111 191.1 264.4 190.52 263.8C190.64 264.625 190.933 265.416 191.38 266.12C191.681 266.898 192.133 267.608 192.71 268.21Z" fill="white"/>
<path d="M180.86 271.83C181.628 271.056 182.331 270.22 182.96 269.33C183.726 268.554 184.428 267.718 185.06 266.83C183.166 268.01 181.695 269.761 180.86 271.83V271.83Z" fill="white"/>
<path d="M176.66 259.26C177.837 259.247 179.011 259.137 180.17 258.93C181.343 258.892 182.51 258.754 183.66 258.52C182.497 258.242 181.288 258.204 180.11 258.41C178.914 258.452 177.739 258.742 176.66 259.26V259.26Z" fill="white"/>
<path d="M168.69 260.17C169.568 261.285 170.575 262.292 171.69 263.17C172.712 264.167 173.85 265.036 175.08 265.76C174.188 264.641 173.164 263.634 172.03 262.76C171.025 261.765 169.904 260.895 168.69 260.17Z" fill="white"/>
<path d="M168 271.23C168.787 270.774 169.528 270.242 170.21 269.64C170.991 269.171 171.727 268.632 172.41 268.03C171.48 268.18 170.613 268.593 169.91 269.22C168.69 270.12 167.94 271.14 168 271.23Z" fill="white"/>
<path d="M161.21 261.83C161.478 262.748 161.912 263.608 162.49 264.37C162.923 265.223 163.506 265.992 164.21 266.64C163.51 264.868 162.494 263.238 161.21 261.83Z" fill="white"/>
<path d="M158.63 269C158.54 269.11 158.77 269.47 159.16 269.8C159.55 270.13 159.94 270.31 160.03 270.2C160.12 270.09 159.89 269.73 159.5 269.4C159.11 269.07 158.72 268.92 158.63 269Z" fill="white"/>
<path d="M305.21 266.42C305.978 265.683 306.528 264.749 306.8 263.72C307.225 262.746 307.381 261.675 307.25 260.62C306.883 261.579 306.569 262.557 306.31 263.55C305.889 264.485 305.522 265.443 305.21 266.42V266.42Z" fill="white"/>
<path d="M309.62 272.43C310.471 271.853 311.215 271.132 311.82 270.3C312.558 269.584 313.17 268.749 313.63 267.83C312.779 268.407 312.035 269.128 311.43 269.96C310.692 270.676 310.08 271.511 309.62 272.43V272.43Z" fill="white"/>
<path d="M295.89 269.23C295.537 270.878 295.537 272.582 295.89 274.23C296.136 273.421 296.218 272.571 296.13 271.73C296.221 270.889 296.139 270.038 295.89 269.23V269.23Z" fill="white"/>
<path d="M298.2 251.21C298.09 251.31 299.2 252.74 300.39 254.66C301.58 256.58 302.28 258.26 302.39 258.21C302.126 256.842 301.585 255.542 300.8 254.39C300.17 253.157 299.283 252.073 298.2 251.21V251.21Z" fill="white"/>
<path d="M299.74 241.12C300.02 242.109 300.463 243.046 301.05 243.89C301.484 244.824 302.079 245.674 302.81 246.4C302.53 245.411 302.087 244.474 301.5 243.63C301.062 242.698 300.467 241.849 299.74 241.12Z" fill="white"/>
<path d="M279.46 255.63C279.913 254.702 280.211 253.705 280.34 252.68C280.629 251.691 280.751 250.66 280.7 249.63C279.954 251.547 279.535 253.575 279.46 255.63V255.63Z" fill="white"/>
<path d="M277.75 245.53C278.596 245.456 279.418 245.215 280.17 244.82C280.988 244.577 281.747 244.169 282.4 243.62C281.555 243.695 280.732 243.937 279.98 244.33C279.162 244.573 278.403 244.981 277.75 245.53Z" fill="white"/>
<path d="M270 253.51C270.779 253.733 271.581 253.867 272.39 253.91C273.178 254.112 273.987 254.226 274.8 254.25C274.128 253.736 273.316 253.436 272.47 253.39C271.654 253.179 270.792 253.221 270 253.51V253.51Z" fill="white"/>
<path d="M294.6 262.23C294.51 262.34 295.32 263.03 296.6 263.23C296.969 263.342 297.356 263.379 297.74 263.338C298.123 263.296 298.494 263.178 298.83 262.99C298.126 262.859 297.415 262.769 296.7 262.72C296.009 262.52 295.308 262.357 294.6 262.23Z" fill="white"/>
<path d="M301.16 278.63C301.3 278.63 301.64 277.94 301.92 277C302.2 276.06 302.32 275.27 302.19 275.23C302.06 275.19 301.71 275.91 301.42 276.85C301.13 277.79 301 278.58 301.16 278.63Z" fill="white"/>
<path d="M294.4 228C294.32 228.827 294.412 229.661 294.67 230.45C294.758 231.276 295.021 232.073 295.44 232.79C295.456 231.14 295.115 229.506 294.44 228H294.4Z" fill="white"/>
<g opacity="0.2">
<path opacity="0.2" d="M231.06 245.72C229.068 246.435 226.953 246.745 224.84 246.63C220.613 246.603 216.437 245.708 212.57 244C208.82 242.21 204.99 238.37 205.51 234.25C205.51 234.25 222.96 241.1 231.23 245.53" fill="black"/>
</g>
<g opacity="0.2">
<path opacity="0.2" d="M283 200.61C283.4 209.88 286.87 234.32 282.45 242.47C280.651 245.791 278.144 248.677 275.107 250.923C272.069 253.169 268.576 254.72 264.874 255.468C261.171 256.216 257.349 256.141 253.678 255.25C250.008 254.359 246.578 252.672 243.63 250.31C247.188 251.425 250.834 252.231 254.53 252.72C258.254 253.211 262.042 252.735 265.53 251.34C267.789 250.278 269.876 248.882 271.72 247.2C274.611 244.796 277.084 241.931 279.04 238.72C282.18 233.35 283.25 227.03 283.59 220.82C283.93 214.61 283.2 206.92 283.03 200.61" fill="black"/>
</g>
<path d="M163.908 199.033L167.729 195.839L183.268 214.43L179.447 217.624L163.908 199.033Z" fill="#263238"/>
<path d="M150.701 196.463C145.887 190.125 146.041 181.906 151.046 178.104C156.051 174.303 164.011 176.358 168.825 182.696C173.639 189.033 173.484 197.252 168.479 201.054C163.474 204.856 155.514 202.8 150.701 196.463Z" fill="#263238"/>
<path d="M149.203 197.823C144.389 191.486 144.462 183.329 149.366 179.604C154.269 175.879 162.147 177.997 166.961 184.334C171.775 190.672 171.702 198.829 166.798 202.554C161.894 206.278 154.017 204.16 149.203 197.823Z" fill="#455A64"/>
<path d="M150.687 196.681C146.294 190.898 146.358 183.455 150.831 180.058C155.304 176.66 162.491 178.594 166.884 184.378C171.277 190.161 171.212 197.604 166.739 201.001C162.267 204.398 155.08 202.464 150.687 196.681Z" fill="#E0E0E0"/>
<path d="M188.58 223.09L183.71 223.78C179.23 224.02 176.71 224.33 175.34 223.35C173.45 222.02 175.48 220.13 175.48 220.13C175.48 220.13 172.11 219.53 172.12 217.53C172.12 216.17 173.61 215.79 173.61 215.79C173.61 215.79 170.61 215.12 169.88 214.03C168.88 212.55 170.74 211.39 170.74 211.39C166.53 209.61 166.52 207.21 167.37 206.84C168.22 206.47 171.44 207.39 171.44 207.39C174.08 207.73 181.31 208.78 178.17 205.39C175.03 202 173.9 198.16 174.31 196.92C174.434 196.645 174.641 196.415 174.901 196.263C175.162 196.111 175.464 196.044 175.764 196.072C176.065 196.099 176.349 196.22 176.578 196.417C176.806 196.614 176.968 196.877 177.04 197.17C177.67 198.611 178.498 199.958 179.5 201.17C180.265 202.173 181.195 203.038 182.25 203.73C183.48 204.53 184.56 205.16 185.49 205.67L192.08 209.37L188.58 223.09Z" fill="#FFBE9D"/>
<path d="M267.5 173.62C269.466 173.62 271.413 174.009 273.228 174.763C275.044 175.518 276.692 176.624 278.078 178.018C279.465 179.412 280.562 181.066 281.307 182.886C282.052 184.705 282.431 186.654 282.42 188.62V225.62C282.42 234.97 276.89 247.06 268.55 251.28C265.326 252.91 261.785 253.819 258.174 253.943C254.564 254.067 250.969 253.404 247.64 252L185.64 225.85L192.26 203.63L253.26 221.85C253.26 221.85 252.83 203.32 252.63 188.69C252.602 186.714 252.968 184.751 253.705 182.917C254.443 181.083 255.537 179.415 256.926 178.008C258.314 176.601 259.968 175.484 261.792 174.722C263.616 173.96 265.573 173.569 267.55 173.57L267.5 173.62Z" fill="#FF725E"/>
<path d="M192.23 203.68L192.47 203.78L193.19 204.04L196 205L206.22 208.31C214.86 211.06 226.84 214.77 240.15 218.56C244.69 219.85 249.09 221.06 253.15 222.16L253.48 222.25V221.92C253.29 211.36 253.13 202.22 253.01 195.68C252.93 192.45 252.87 189.87 252.82 188.05C252.82 187.19 252.77 186.52 252.75 186.05C252.765 185.817 252.765 185.583 252.75 185.35C252.724 185.586 252.724 185.824 252.75 186.06C252.75 186.56 252.75 187.24 252.75 188.06C252.75 189.88 252.75 192.46 252.75 195.68C252.82 202.23 252.92 211.37 253.04 221.92L253.35 221.68C249.27 220.57 244.87 219.35 240.35 218.05C227.04 214.27 215.05 210.62 206.35 207.96L196 204.78L193.2 203.94L192.47 203.73C192.392 203.704 192.312 203.687 192.23 203.68Z" fill="#263238"/>
<path d="M186.47 225.77C186.581 225.84 186.698 225.9 186.82 225.95L187.89 226.44L192 228.3L207.28 235L229.93 244.92C234.21 246.75 238.64 248.8 243.36 250.67C245.765 251.625 248.235 252.41 250.75 253.02C253.349 253.663 256.024 253.945 258.7 253.86C261.391 253.767 264.038 253.159 266.5 252.07C268.887 251.014 271.083 249.571 273 247.8C276.56 244.414 279.296 240.258 281 235.65C281.827 233.518 282.401 231.296 282.71 229.03C282.85 227.93 282.99 226.85 283.05 225.78C283.11 224.71 283.21 223.66 283.25 222.62C283.43 218.48 283.45 214.62 283.41 211.1C283.33 204.1 283.06 198.37 282.86 194.43C282.74 192.49 282.65 190.97 282.59 189.91C282.59 189.41 282.52 189.02 282.5 188.73C282.48 188.44 282.45 188.33 282.45 188.34C282.439 188.473 282.439 188.607 282.45 188.74C282.45 189.03 282.45 189.42 282.45 189.92C282.45 190.98 282.55 192.5 282.63 194.44C282.77 198.38 282.98 204.07 283.01 211.1C283.01 214.62 283.01 218.47 282.79 222.6C282.57 226.73 282.28 231.17 280.52 235.48C278.809 240.041 276.072 244.146 272.52 247.48C270.646 249.213 268.501 250.629 266.17 251.67C263.767 252.729 261.184 253.319 258.56 253.41C255.931 253.493 253.303 253.213 250.75 252.58C248.257 251.984 245.811 251.208 243.43 250.26C238.73 248.41 234.28 246.37 230.01 244.55L207.31 234.74L191.99 228.16L187.82 226.4L186.73 225.95C186.649 225.882 186.562 225.822 186.47 225.77V225.77Z" fill="#263238"/>
<path d="M273.62 201.77C273.74 201.85 274.47 200.92 275.25 199.71C275.792 199.013 276.196 198.219 276.44 197.37C275.772 197.948 275.219 198.647 274.81 199.43C274.258 200.121 273.853 200.917 273.62 201.77Z" fill="white"/>
<path d="M261.2 198.12C261.557 199.904 262.257 201.602 263.26 203.12C262.903 201.336 262.203 199.638 261.2 198.12V198.12Z" fill="white"/>
<path d="M267.73 189.9C267.85 189.99 268.57 189.21 269.36 188.16C270.15 187.11 270.68 186.16 270.56 186.16C270.44 186.16 269.72 186.85 268.94 187.89C268.403 188.47 267.991 189.154 267.73 189.9V189.9Z" fill="white"/>
<path d="M259.76 183.52C260.521 183.782 261.332 183.864 262.131 183.76C262.929 183.656 263.692 183.369 264.36 182.92C263.588 182.955 262.822 183.062 262.07 183.24C261.293 183.258 260.519 183.352 259.76 183.52V183.52Z" fill="white"/>
<path d="M269.57 215C269.868 213.756 269.992 212.478 269.94 211.2C270.054 209.928 270 208.648 269.78 207.39C269.482 208.634 269.358 209.912 269.41 211.19C269.296 212.462 269.35 213.743 269.57 215V215Z" fill="white"/>
<path d="M275.87 216.91C276.539 216.149 277.073 215.28 277.45 214.34C277.981 213.481 278.36 212.538 278.57 211.55C277.897 212.304 277.362 213.171 276.99 214.11C276.457 214.971 276.078 215.919 275.87 216.91V216.91Z" fill="white"/>
<path d="M258.16 211.15C258.609 212.306 259.218 213.394 259.97 214.38C260.583 215.458 261.34 216.447 262.22 217.32C261.167 215.081 259.8 213.003 258.16 211.15V211.15Z" fill="white"/>
<path d="M264.55 225.92C265.97 225.809 267.37 225.524 268.72 225.07C270.104 224.787 271.448 224.334 272.72 223.72C269.904 224.118 267.147 224.857 264.51 225.92H264.55Z" fill="white"/>
<path d="M268.58 233.37C269.199 234.304 269.954 235.139 270.82 235.85C271.575 236.678 272.451 237.387 273.42 237.95C272.803 237.015 272.048 236.179 271.18 235.47C270.423 234.644 269.547 233.936 268.58 233.37V233.37Z" fill="white"/>
<path d="M262.27 246C262.482 244.943 262.526 243.86 262.4 242.79C262.441 241.713 262.309 240.636 262.01 239.6C261.786 240.655 261.742 241.74 261.88 242.81C261.839 243.887 261.971 244.964 262.27 246V246Z" fill="white"/>
<path d="M253.11 233.53C254.195 233.024 255.204 232.372 256.11 231.59C257.119 230.942 258.029 230.15 258.81 229.24C257.721 229.737 256.71 230.391 255.81 231.18C254.799 231.825 253.889 232.617 253.11 233.53V233.53Z" fill="white"/>
<path d="M243.52 239.82C245.147 241.34 246.856 242.769 248.64 244.1C248.062 243.126 247.285 242.284 246.36 241.63C245.547 240.839 244.58 240.223 243.52 239.82V239.82Z" fill="white"/>
<path d="M247.76 231.78C248.082 230.813 248.238 229.799 248.22 228.78C248.366 227.784 248.346 226.77 248.16 225.78C247.833 226.746 247.677 227.761 247.7 228.78C247.552 229.776 247.572 230.79 247.76 231.78V231.78Z" fill="white"/>
<path d="M236.54 228.39C237.457 227.742 238.339 227.044 239.18 226.3C240.131 225.686 241.046 225.019 241.92 224.3C239.713 224.96 237.808 226.376 236.54 228.3V228.39Z" fill="white"/>
<path d="M226.72 235.78C227.887 236.263 229.115 236.583 230.37 236.73C231.597 237.05 232.862 237.201 234.13 237.18C232.961 236.683 231.73 236.347 230.47 236.18C229.245 235.873 227.983 235.739 226.72 235.78V235.78Z" fill="white"/>
<path d="M222.51 224.17C223.44 224.954 224.419 225.679 225.44 226.34C226.358 227.139 227.32 227.887 228.32 228.58C226.884 226.547 224.855 225.007 222.51 224.17V224.17Z" fill="white"/>
<path d="M224.11 218.76C226.983 219.531 229.989 219.668 232.92 219.16C231.46 218.983 229.99 218.903 228.52 218.92C227.055 218.769 225.582 218.716 224.11 218.76V218.76Z" fill="white"/>
<path d="M210.7 226C211.306 226.97 212.054 227.843 212.92 228.59C213.664 229.458 214.538 230.207 215.51 230.81C214.9 229.843 214.152 228.97 213.29 228.22C212.543 227.354 211.67 226.606 210.7 226V226Z" fill="white"/>
<path d="M211.5 220.37C212.708 219.78 213.836 219.041 214.86 218.17C215.981 217.429 217.005 216.553 217.91 215.56C215.566 216.867 213.41 218.485 211.5 220.37V220.37Z" fill="white"/>
<path d="M199.94 209.32C200.346 210.533 200.911 211.686 201.62 212.75C202.188 213.898 202.907 214.964 203.76 215.92C203.353 214.706 202.784 213.553 202.07 212.49C201.508 211.341 200.791 210.274 199.94 209.32V209.32Z" fill="white"/>
<path d="M192.08 224C193.589 223.941 195.093 223.781 196.58 223.52C198.09 223.433 199.593 223.25 201.08 222.97C199.574 222.721 198.037 222.721 196.53 222.97C195.001 223.074 193.499 223.421 192.08 224V224Z" fill="white"/>
<path d="M193.74 220.77C194.282 218.956 194.489 217.058 194.35 215.17C193.987 216.049 193.794 216.989 193.78 217.94C193.6 218.874 193.586 219.832 193.74 220.77Z" fill="white"/>
<path d="M274.17 177.92C274.769 179.151 275.518 180.303 276.4 181.35C277.139 182.505 278.026 183.557 279.04 184.48C278.443 183.245 277.694 182.089 276.81 181.04C276.07 179.89 275.182 178.841 274.17 177.92V177.92Z" fill="white"/>
</svg>
