<svg width="178" height="156" viewBox="0 0 178 156" fill="none" xmlns="http://www.w3.org/2000/svg">
<g clip-path="url(#clip0)">
<path d="M93.7614 121.424C131.833 121.424 165.143 49.8716 165.143 64.0873C165.143 78.3029 138.442 144.986 93.7614 144.986C72.304 144.986 51.7255 136.462 36.5529 121.291C21.3802 106.12 12.8563 85.5428 12.8563 64.0873C12.8563 19.41 55.6862 121.424 93.7614 121.424Z" fill="#FF7F5E"/>
<path d="M73.6085 60.8575C40.6374 79.8918 47.5688 158.511 40.4587 146.197C33.3486 133.883 23.1299 62.788 61.8249 40.4493C80.4075 29.7216 102.491 26.8145 123.217 32.3676C143.943 37.9207 161.615 51.4791 172.343 70.0602C194.685 108.755 106.583 41.8215 73.6085 60.8575Z" fill="#FF7F5E"/>
</g>
<defs>
<clipPath id="clip0">
<rect width="178" height="156" fill="white"/>
</clipPath>
</defs>
</svg>
